<svg width="28" height="28" viewBox="0 0 28 28" fill="none" xmlns="http://www.w3.org/2000/svg">
<g id="ion:logo-facebook" clip-path="url(#clip0_4_928)">
<path id="Vector" fill-rule="evenodd" clip-rule="evenodd" d="M28 14.0844C28 6.35313 21.7313 0.0843811 14 0.0843811C6.26875 0.0843811 0 6.35313 0 14.0844C0 21.0719 5.11875 26.8638 11.8125 27.915V18.1325H8.25688V14.0844H11.8125V11C11.8125 7.49188 13.9031 5.55251 17.1006 5.55251C18.6325 5.55251 20.235 5.82626 20.235 5.82626V9.27188H18.4688C16.7306 9.27188 16.1869 10.3506 16.1869 11.4594V14.0844H20.0694L19.4494 18.1325H16.1875V27.9163C22.8813 26.8656 28 21.0738 28 14.0844Z" fill="#1E55E1"/>
</g>
<defs>
<clipPath id="clip0_4_928">
<rect width="28" height="28" fill="white"/>
</clipPath>
</defs>
</svg>
