<svg width="220" height="220" viewBox="0 0 220 220" fill="none" xmlns="http://www.w3.org/2000/svg">
<g id="Girl eating Japanese food with chopstick" clip-path="url(#clip0_4_875)">
<g id="Layer_6_xA0_Image_1_">
<g id="Group">
<g id="Group_2">
<g id="Group_3">
<path id="Vector" d="M122.091 56.06C122.062 56.0901 122.049 56.1277 122.041 56.1679C122.058 56.132 122.075 56.096 122.091 56.06Z" fill="black"/>
<path id="Vector_2" d="M153.972 101.757C153.625 101.448 153.269 101.147 152.899 100.867C151.044 99.4639 149.356 97.8729 147.706 96.2413C146.301 94.8519 144.881 93.4734 143.617 91.9515C140.801 88.5626 138.566 84.8056 136.69 80.833C136.068 79.5158 135.567 78.1419 134.992 76.8017C133.887 74.2248 132.831 71.6269 131.96 68.9632C130.964 65.9202 129.983 62.8714 129.35 59.7212C128.714 56.5533 127.888 53.4251 127.449 50.2155C127.208 48.4581 126.741 46.7414 126.338 45.0143C125.864 42.9816 125.451 40.9345 124.797 38.9461C124.1 36.8246 123.388 34.7071 122.284 32.7559C119.92 28.5801 116.967 24.8886 113.224 21.8551C111.411 20.386 109.432 19.2023 107.276 18.3047C105.234 17.4545 103.114 16.8796 100.956 16.4257C99.3299 16.0837 97.6909 15.8245 96.0286 15.746C93.899 15.6456 91.7924 15.8817 89.7109 16.2936C87.6169 16.708 85.6492 17.4678 83.8909 18.7121C83.1594 19.2297 82.5491 19.8598 82.0102 20.5784C81.2298 21.619 80.9038 22.8217 80.6286 24.0572C80.5379 24.4643 80.6504 24.9989 80.302 25.2483C79.9703 25.4857 79.4833 25.3512 79.0604 25.3525C78.857 25.3533 78.6537 25.3536 78.4505 25.3474C77.4633 25.3176 76.4976 25.4681 75.5642 25.7647C72.994 26.5818 70.683 27.8607 68.6929 29.6973C67.8699 30.4568 67.1183 31.2807 66.424 32.1584C64.5927 34.4732 62.9543 36.9257 61.2892 39.3591C60.9507 39.8538 60.6604 40.3831 60.3695 40.9085C59.9114 41.7361 59.5335 42.5998 59.262 43.5084C58.8463 44.8994 58.7075 46.3028 58.9463 47.7492C59.2246 49.4348 59.8364 50.9987 60.5721 52.5231C60.9076 53.2186 61.2734 53.8995 61.6135 54.5928C62.0064 55.3942 62.2986 56.232 62.3837 57.1246C62.4734 58.0645 62.606 59.0018 62.5907 59.9501C62.5722 61.0955 62.581 62.2416 62.5455 63.3864C62.4959 64.99 62.4452 66.5908 62.585 68.1941C62.7479 70.0622 63.1475 71.8634 63.9168 73.5814C64.9089 75.7971 66.2139 77.799 67.8945 79.5547C68.0167 79.6823 68.2361 79.7681 68.1962 79.9994C68.0349 80.1324 67.8577 80.1331 67.69 80.1566C65.6454 80.4426 63.6439 80.9146 61.6829 81.5574C59.9111 82.1381 58.2072 82.8706 56.611 83.8423C56.2176 84.0818 55.8533 84.3557 55.5577 84.7123C55.4759 84.8111 55.4759 84.9235 55.5546 85.0234C55.6248 85.1126 55.7004 85.2007 55.787 85.2734C56.6796 86.0235 57.3196 86.9629 57.8549 87.987C58.6926 89.5899 59.2822 91.292 59.8985 92.9849C60.0018 93.2685 59.9568 93.4661 59.7748 93.6861C59.2798 94.2844 58.8719 94.9369 58.5791 95.6609C58.2941 96.3654 58.135 97.0995 58.281 97.8421C58.3734 98.3119 58.3124 98.6081 57.8623 98.8005C57.734 98.8553 57.6298 98.9655 57.5128 99.0478C53.5801 101.814 49.6472 104.58 45.7144 107.345C45.6602 107.405 45.6096 107.405 45.5633 107.336C45.5988 107.229 45.6206 107.115 45.6721 107.016C46.1912 106.021 46.1989 104.986 45.9249 103.926C45.8087 103.477 45.6187 103.064 45.3224 102.704C44.7922 102.062 44.2551 101.909 43.5 102.249C43.0858 102.435 42.6884 102.678 42.3214 102.947C40.9205 103.974 39.7674 105.241 38.8295 106.699C37.3508 108.998 36.1345 111.419 35.4809 114.091C35.4345 114.281 35.3285 114.451 35.1749 114.571C34.6564 114.978 34.1541 115.407 33.6163 115.786C30.0825 118.274 26.5403 120.751 23.0016 123.233C22.7909 123.38 22.572 123.522 22.3834 123.695C21.9772 124.067 21.9115 124.587 22.1924 125.012C22.4882 125.459 23.0447 125.596 23.5571 125.328C23.7587 125.223 23.9403 125.078 24.1278 124.947C26.7532 123.107 29.3782 121.267 32.0029 119.427C32.4479 119.115 32.907 118.822 33.2943 118.433C33.3913 118.336 33.5032 118.234 33.7073 118.271C33.6271 119.086 33.5481 119.905 33.4657 120.723C33.3511 121.863 33.2077 123 33.1934 124.147C33.1806 125.178 33.1589 126.209 33.1552 127.24C33.1485 129.073 33.16 130.906 33.1504 132.739C33.138 135.109 32.7258 137.402 31.8757 139.622C31.3947 140.878 30.8677 142.113 30.3434 143.35C28.8349 146.911 27.4798 150.515 26.7513 154.337C26.2928 156.741 26.0857 159.153 26.1433 161.594C26.1473 161.765 26.1543 161.94 26.1946 162.104C26.2298 162.248 26.3418 162.345 26.5031 162.359C26.6937 162.376 26.8377 162.305 26.9158 162.127C27.0121 161.907 26.9706 161.675 26.9666 161.448C26.944 160.187 26.958 158.925 27.0837 157.671C27.3069 155.446 27.7739 153.264 28.3686 151.109C29.0629 148.595 30.0528 146.188 31.0606 143.788C31.6473 142.39 32.2713 141.008 32.7694 139.575C33.202 138.329 33.5648 137.069 33.7533 135.76C33.9829 134.166 33.9766 132.562 33.9691 130.959C33.9538 127.723 33.8981 124.486 34.2408 121.26C34.3528 120.207 34.4829 119.156 34.5801 118.101C34.6262 117.601 34.8352 117.246 35.2904 117.022C35.9605 116.692 36.554 116.24 37.1612 115.811C39.6387 114.061 42.1136 112.306 44.5947 110.56C45.2961 110.066 46.0158 109.601 46.6973 109.077C47.3083 108.607 47.9724 108.205 48.6188 107.781C48.8844 107.607 49.0082 107.668 49.1043 107.986C49.2507 108.471 49.2305 108.945 49.0138 109.408C48.708 110.06 48.3088 110.652 47.8303 111.189C47.0668 112.046 46.4194 112.992 45.7332 113.908C45.4058 114.345 45.1381 114.819 44.9531 115.334C44.8858 115.521 44.8263 115.716 44.8015 115.913C44.7787 116.093 44.8633 116.245 45.047 116.32C45.2318 116.395 45.4582 116.309 45.5514 116.119C45.6015 116.017 45.6298 115.904 45.6736 115.799C45.7829 115.535 45.8655 115.255 46.0118 115.013C46.6207 114.007 47.353 113.089 48.0869 112.173C48.2888 111.921 48.5442 111.867 48.8544 111.923C49.1855 111.984 49.4394 112.151 49.6333 112.412C49.8955 112.766 50.0374 113.164 50.0491 113.609C50.0668 114.288 49.8826 114.911 49.5323 115.486C49.0849 116.22 48.5978 116.928 48.031 117.576C47.5219 118.158 46.9935 118.722 46.4785 119.299C46.3266 119.469 46.1848 119.649 46.0505 119.834C45.9553 119.965 45.9795 120.102 46.0782 120.228C46.1999 120.383 46.3575 120.419 46.5355 120.354C46.732 120.282 46.8524 120.115 46.9885 119.969C47.3591 119.571 47.7228 119.165 48.1049 118.779C48.5412 118.337 49.0848 118.082 49.6934 117.994C50.4843 117.881 50.9515 118.34 50.8958 119.14C50.8714 119.492 50.7548 119.813 50.5577 120.101C50.4288 120.289 50.2889 120.475 50.1252 120.632C49.7538 120.989 49.3658 121.328 48.9824 121.672C48.407 122.187 47.8257 122.697 47.2559 123.219C47.0876 123.373 47.07 123.62 47.1792 123.765C47.3104 123.94 47.5913 123.982 47.7949 123.838C47.9342 123.74 48.0574 123.618 48.1833 123.502C48.7808 122.951 49.4776 122.566 50.2258 122.262C50.495 122.152 50.7712 122.088 51.0587 122.075C51.4416 122.058 51.6535 122.209 51.7396 122.585C51.85 123.068 51.8285 123.551 51.688 124.028C51.4381 124.877 50.9575 125.574 50.2991 126.156C49.7409 126.649 49.1744 127.132 48.6242 127.634C47.4147 128.737 46.3047 129.928 45.375 131.282C43.7117 133.705 42.713 136.397 42.1434 139.259C41.6779 141.598 41.5293 143.973 41.5088 146.35C41.4775 149.965 41.847 153.555 42.3591 157.129C42.505 158.148 42.7282 159.156 43.0169 160.146C43.0964 160.419 43.1952 160.689 43.3127 160.948C43.4028 161.146 43.6254 161.21 43.8218 161.13C44.0106 161.052 44.0639 160.89 44.0407 160.711C44.0226 160.571 43.9622 160.437 43.9227 160.3C43.6852 159.475 43.4792 158.644 43.322 157.798C43.0705 156.446 42.9096 155.083 42.767 153.716C42.565 151.779 42.3907 149.839 42.3412 147.893C42.2742 145.254 42.4171 142.623 42.8471 140.017C43.2602 137.514 44.0529 135.134 45.3142 132.922C46.3175 131.162 47.6316 129.658 49.121 128.3C49.7135 127.759 50.325 127.24 50.9211 126.704C51.7298 125.976 52.2792 125.089 52.5443 124.029C52.6718 123.519 52.6845 123.003 52.5764 122.496C52.3991 121.663 51.9623 121.309 51.0849 121.235C51.0086 121.229 50.9212 121.253 50.8554 121.11C50.9541 120.974 51.0688 120.815 51.1845 120.657C51.4603 120.279 51.6181 119.853 51.6987 119.397C51.866 118.45 51.5289 117.785 50.6324 117.287C50.2818 117.067 49.7964 117.452 49.4902 117.032C49.7585 116.628 50.0379 116.23 50.2926 115.817C50.6597 115.222 50.8399 114.562 50.8793 113.868C50.9498 112.625 50.4059 111.733 49.2735 111.2C49.1976 111.164 49.1275 111.116 49.0431 111.067C49.2905 110.613 49.5468 110.176 49.7706 109.723C50.0897 109.077 50.1134 108.404 49.8856 107.722C49.8496 107.615 49.7991 107.512 49.7602 107.405C49.6434 107.085 49.6483 107.067 49.9442 106.848C50.0819 106.746 50.2268 106.654 50.3671 106.556C53.1515 104.604 55.9358 102.652 58.7197 100.7C58.9069 100.569 59.1318 100.466 59.2691 100.295C59.5684 99.9202 59.8783 99.9761 60.2249 100.186C60.2734 100.216 60.3266 100.249 60.3806 100.256C60.8769 100.314 61.0042 100.642 61.0715 101.085C61.326 102.759 61.4339 104.437 61.2856 106.127C61.2107 106.981 61.1455 107.836 61.0432 108.687C60.8555 110.247 60.6544 111.806 60.3463 113.348C60.3439 113.557 60.3414 113.766 60.339 113.976C60.204 114.208 60.3565 114.498 60.1897 114.725C60.1374 114.789 60.0851 114.853 60.0328 114.917C60.0252 115.381 59.8616 115.814 59.7526 116.257C58.9656 119.454 57.8759 122.558 56.8388 125.677C56.1353 127.793 55.3997 129.898 54.7999 132.047C54.2681 133.952 54.1391 135.885 54.5706 137.823C54.8813 139.218 55.2991 140.587 55.82 141.922C56.8347 144.522 58.1569 146.962 59.6595 149.309C60.4657 150.568 61.2228 151.858 61.9097 153.186C62.6399 154.598 63.3501 156.019 63.8424 157.536C63.9304 157.808 64.0023 158.084 64.0953 158.354C64.158 158.536 64.3392 158.624 64.503 158.569C64.6921 158.506 64.7826 158.352 64.7569 158.173C64.7164 157.891 64.6498 157.611 64.5658 157.339C64.2791 156.409 63.9341 155.502 63.5202 154.62C62.4855 152.414 61.2469 150.325 59.9548 148.262C57.9863 145.12 56.3852 141.813 55.4839 138.19C55.082 136.574 55.051 134.966 55.3327 133.339C55.5482 132.095 55.9612 130.904 56.3503 129.709C57.2973 126.8 58.2675 123.899 59.2209 120.993C60.006 118.6 60.6985 116.181 61.1245 113.695C61.4677 111.693 61.7551 109.682 61.9643 107.66C62.1803 105.572 62.2177 103.49 61.93 101.407C61.8958 101.16 61.8756 100.91 61.8524 100.695C62.0128 100.548 62.161 100.589 62.2992 100.585C62.9582 100.563 63.6116 100.5 64.2564 100.354C64.5882 100.279 64.96 100.097 65.2466 100.185C65.5328 100.272 65.7397 100.63 65.9735 100.877C67.0384 102.001 68.3385 102.418 69.8655 102.221C70.6895 102.114 71.3042 101.712 71.7758 101.047C71.9001 100.872 71.9341 100.627 72.1712 100.516C72.5749 100.954 73.0617 101.239 73.6556 101.305C74.2882 101.375 74.9223 101.358 75.5192 101.122C76.9434 100.557 77.9399 99.6101 78.1416 98.0141C78.2863 96.8685 77.9217 95.8738 77.1871 94.9986C77.0298 94.8113 76.7836 94.6919 76.6948 94.421C77.2869 93.9655 77.5979 93.3692 77.7373 92.6759C78.0585 91.0779 77.539 89.736 76.4321 88.6076C75.4757 87.6327 74.0427 87.2016 72.5571 88.3248C72.2867 88.5293 72.0309 88.753 71.7734 88.9636C71.4867 88.8064 71.5071 88.5082 71.4142 88.2822C70.9497 87.1521 70.1764 86.3087 69.1417 85.6773C68.3769 85.2107 67.5484 85.0697 66.6727 85.1159C66.2636 85.1375 65.8821 85.253 65.5507 85.4957C64.6551 86.1516 63.93 86.9346 63.6091 88.0375C63.4462 88.5968 63.3776 89.1544 63.4409 89.7326C63.4592 89.8997 63.5007 90.1123 63.4222 90.2325C63.172 90.6152 63.0351 91.0772 62.4185 91.2248C61.7904 91.3752 61.2859 91.804 60.9876 92.3768C60.9067 92.5322 60.7608 92.5766 60.5884 92.6792C60.4567 92.2973 60.3321 91.9491 60.2164 91.598C59.7414 90.1561 59.1786 88.7517 58.4608 87.4112C58.0395 86.6245 57.534 85.9002 56.9301 85.243C56.8214 85.1246 56.6577 85.0396 56.645 84.8558C56.7023 84.701 56.8428 84.646 56.9619 84.5723C57.7653 84.0747 58.6036 83.6435 59.4693 83.2648C63.3188 81.5803 67.3786 80.8058 71.5439 80.5525C74.7524 80.3574 77.9543 80.4807 81.1295 81.0411C83.0477 81.3796 84.9276 81.8533 86.758 82.5304C87.2203 82.7014 87.5266 82.9602 87.7676 83.3809C88.6235 84.8753 89.3064 86.446 89.9052 88.0563C90.0447 88.4313 90.1677 88.8132 90.3239 89.1811C90.4687 89.5222 90.6763 89.6639 90.8854 89.6183C91.1259 89.5658 91.2051 89.2824 91.0632 88.8839C90.4582 87.1862 89.8085 85.5069 88.9722 83.9061C88.5607 83.1184 88.0888 82.3663 87.5587 81.6562C86.456 80.1795 85.0046 79.1265 83.3641 78.3224C82.5428 77.9198 81.6988 77.5674 80.8361 77.2606C79.649 76.8384 78.4995 76.3315 77.3976 75.7185C75.9057 74.8886 74.6017 73.8371 73.5233 72.5044C72.6215 71.39 71.7847 70.2314 71.0222 69.0184C70.1634 67.6525 69.5287 66.1848 69.1065 64.6316C68.4129 62.08 68.3641 59.4856 68.6909 56.8784C68.9367 54.9167 69.365 52.9894 69.886 51.0837C70.1949 49.9539 70.4202 48.8005 70.8523 47.705C71.3353 46.4806 71.8663 45.2778 72.451 44.0989C72.6673 43.663 72.9075 43.2406 73.2238 42.8653C73.8887 42.0761 74.487 41.2362 75.058 40.3785C76.5642 38.1159 78.0571 35.8443 79.5577 33.5778C79.6431 33.4489 79.6798 33.2501 79.9169 33.2829C80.0467 33.6279 80.1707 33.9783 80.3094 34.3228C80.9473 35.9083 81.8473 37.3237 83.0618 38.5324C83.5715 39.0396 84.1271 39.4885 84.7647 39.8264C84.9658 39.933 85.1742 40.0369 85.3913 40.0997C85.7232 40.1957 86.0387 39.8859 85.9535 39.556C85.9112 39.3921 85.8352 39.2342 85.7567 39.0829C85.5854 38.7529 85.3975 38.4316 85.2257 38.1018C84.1947 36.124 83.5404 34.0372 83.4332 31.7975C83.414 31.3982 83.4394 30.9968 83.4433 30.5965C83.4439 30.5301 83.4802 30.4864 83.551 30.5015C83.5992 30.5117 83.6588 30.5476 83.6801 30.5891C83.7321 30.6902 83.7622 30.8022 83.8055 30.9081C85.096 34.0648 87.0724 36.7348 89.5781 39.0266C90.34 39.7236 91.1528 40.3564 92.0516 40.8705C92.2992 41.0121 92.556 41.1384 92.8135 41.2614C92.9504 41.3268 93.0864 41.3083 93.2146 41.2137C93.3744 41.0957 93.4015 40.9347 93.3777 40.7579C93.3496 40.5493 93.2053 40.4007 93.0894 40.2389C92.6228 39.5873 92.1455 38.9432 91.6889 38.2846C90.4611 36.5131 89.7835 34.5235 89.3914 32.423C89.1985 32.1659 89.2437 31.8548 89.1966 31.5647C89.0823 31.3683 89.0448 31.1652 89.0452 30.9508C89.0458 30.7381 89.3705 30.7194 89.3896 30.9313C89.3929 30.9676 89.393 31.0055 89.3899 31.0451C89.4043 31.2825 89.6129 31.4694 89.5664 31.7227C89.6362 31.8787 89.7089 32.0336 89.7753 32.1912C90.3195 33.4836 90.896 34.7589 91.6187 35.9654C93.0084 38.2857 94.8822 40.1585 96.9868 41.821C97.121 41.9271 97.269 42.0163 97.4138 42.1082C97.572 42.2086 97.7382 42.2266 97.8918 42.1054C98.0375 41.9903 98.1041 41.8251 98.0538 41.6488C97.9995 41.4582 97.9164 41.2738 97.8288 41.0952C96.853 39.1042 96.1513 37.0234 95.827 34.8273C95.6677 33.7482 95.5929 32.6604 95.9305 31.5923C95.9698 31.4676 95.9501 31.2675 96.1519 31.2954C96.283 31.3135 96.2403 31.4765 96.252 31.5758C96.4401 33.1757 96.8289 34.7266 97.4127 36.2257C98.2333 38.3334 99.1671 40.3918 100.264 42.3701C101.237 44.1247 102.306 45.8194 103.671 47.306C103.805 47.4526 103.944 47.5966 104.094 47.727C104.183 47.8048 104.297 47.8094 104.413 47.7527C104.528 47.6962 104.603 47.6022 104.595 47.4867C104.581 47.2885 104.551 47.0876 104.496 46.8969C103.753 44.309 103.82 41.6933 104.221 39.0662C104.251 38.8716 104.283 38.6685 104.483 38.4976C104.616 39.2194 104.744 39.9179 104.875 40.6158C105.229 42.4993 105.565 44.3864 106.053 46.2421C106.534 48.0709 107.079 49.8754 107.991 51.5471C108.127 51.7977 108.228 52.0681 108.368 52.3163C108.481 52.515 108.721 52.5405 108.881 52.3869C108.984 52.2885 109.069 52.1715 109.167 52.0679C109.721 51.4843 110.324 50.9575 111.006 50.527C111.468 50.2356 111.956 49.9988 112.483 49.8492C113.985 49.4225 115.155 49.9833 115.755 51.419C115.898 51.763 115.99 52.1207 116.06 52.4883C116.263 53.5493 116.183 54.6062 115.982 55.6487C115.486 58.2258 114.393 60.5363 112.741 62.5741C111.925 63.5809 110.996 64.4692 109.837 65.0852C109.234 65.4924 109.487 66.1197 109.464 66.6545C109.32 70.0754 106.235 72.0429 103.202 70.6283C103.021 70.5437 102.843 70.4494 102.634 70.5367C102.466 71.0222 102.301 71.5091 102.127 71.9929C101.666 73.2821 101.726 74.5693 102.074 75.8767C102.657 78.069 103.645 80.0434 105.102 81.7857C106.556 83.5255 108.069 85.2043 109.944 86.5114C111.47 87.5751 112.999 88.6336 114.654 89.4953C115.166 89.7617 115.168 89.7773 114.942 90.27C114.426 91.3928 113.783 92.4395 113.036 93.4229C111.711 95.1692 110.142 96.6706 108.391 97.9818C104.742 100.714 100.67 102.536 96.2352 103.55C93.1125 104.264 89.9575 104.498 86.7677 104.095C84.2077 103.773 81.7948 103.037 79.6387 101.574C79.5443 101.509 79.4467 101.447 79.3431 101.4C79.1568 101.316 79.0099 101.395 78.8949 101.542C78.768 101.703 78.7986 101.871 78.9281 102.006C79.0452 102.129 79.1843 102.233 79.3252 102.329C79.9423 102.747 80.595 103.101 81.2726 103.412C83.7055 104.526 86.2824 104.995 88.9353 105.087C92.2856 105.202 95.5573 104.694 98.7537 103.714C102.959 102.425 106.802 100.445 110.163 97.5838C112.523 95.5755 114.493 93.2563 115.763 90.3954C115.807 90.2963 115.891 90.2148 115.97 90.106C116.746 90.4536 117.515 90.7651 118.254 91.1347C120.689 92.3514 123.027 93.7333 125.247 95.3108C128.517 97.6339 131.708 100.057 134.7 102.734C136.301 104.166 137.943 105.553 139.467 107.069C140.116 107.714 140.744 108.379 141.337 109.12C141.074 109.402 140.853 109.647 140.606 109.895C139.875 110.628 139.157 111.374 138.465 112.143C135.561 115.372 132.652 118.596 129.874 121.936C128.13 124.034 126.574 126.259 125.246 128.64C124.188 130.535 123.546 132.577 123.301 134.732C123.217 135.47 123.22 136.219 123.216 136.962C123.214 137.359 123.357 137.542 123.574 137.558C123.799 137.574 123.936 137.38 123.966 136.999C123.971 136.942 123.969 136.885 123.973 136.828C124.021 136.114 124.051 135.398 124.122 134.686C124.258 133.309 124.652 131.996 125.156 130.712C125.186 130.635 125.222 130.557 125.325 130.584C125.431 130.613 125.426 130.714 125.429 130.795C125.49 132.313 125.681 133.819 125.833 135.329C126.023 137.209 126.211 139.089 126.403 140.968C126.607 142.962 126.833 144.953 127.013 146.949C127.228 149.318 127.556 151.67 127.996 154.005C128.34 155.831 128.756 157.644 129.141 159.463C129.153 159.518 129.167 159.576 129.193 159.625C129.235 159.705 129.307 159.745 129.401 159.737C129.748 159.708 129.886 159.539 129.834 159.194C129.788 158.883 129.739 158.572 129.679 158.263C129.293 156.269 128.825 154.292 128.512 152.283C128.172 150.103 127.882 147.921 127.714 145.721C127.653 144.922 127.562 144.125 127.478 143.328C127.337 141.99 127.187 140.653 127.046 139.315C126.834 137.293 126.62 135.272 126.422 133.249C126.296 131.967 126.191 130.683 126.161 129.393C126.15 128.891 126.256 128.457 126.524 128.018C127.689 126.108 128.973 124.287 130.399 122.562C132.992 119.427 135.722 116.412 138.426 113.376C139.418 112.263 140.44 111.181 141.502 110.136C141.638 110.002 141.739 109.812 141.987 109.779C142.331 110.04 142.502 110.436 142.681 110.823C142.994 111.5 143.208 112.214 143.367 112.941C143.922 115.492 144.163 118.087 144.394 120.681C144.515 122.05 144.569 123.424 144.643 124.797C144.819 128.058 144.936 131.32 144.824 134.587C144.715 137.764 144.633 140.942 144.545 144.12C144.473 146.696 144.431 149.274 144.333 151.85C144.265 153.653 144.176 155.455 144.218 157.26C144.221 157.403 144.223 157.546 144.226 157.689C144.232 157.978 144.408 158.158 144.623 158.314C144.712 158.379 144.884 158.329 144.897 158.23C144.915 158.089 144.932 157.947 144.934 157.805C144.947 156.975 144.938 156.144 144.968 155.315C145.054 152.968 145.17 150.623 145.246 148.276C145.343 145.27 145.39 142.263 145.5 139.258C145.62 136.023 145.674 132.788 145.63 129.551C145.596 127.03 145.449 124.515 145.295 121.999C145.13 119.311 144.83 116.637 144.396 113.98C144.15 112.479 143.781 111.011 142.994 109.681C142.96 109.623 142.99 109.527 142.99 109.43C144.591 109.39 146.119 109.018 147.614 108.518C150.042 107.707 152.056 106.299 153.588 104.235C153.841 103.894 154.065 103.524 154.251 103.142C154.48 102.672 154.362 102.104 153.972 101.757ZM44.5971 107.189C44.0277 107.906 43.4317 108.602 42.8402 109.301C42.7497 109.408 42.6246 109.488 42.5078 109.57C40.6086 110.899 38.7085 112.226 36.807 113.552C36.7176 113.614 36.6141 113.656 36.5193 113.707C36.3803 113.513 36.4775 113.35 36.534 113.197C37.3512 110.991 38.3443 108.87 39.6724 106.92C40.5653 105.609 41.6254 104.453 42.925 103.53C43.2526 103.297 43.5956 103.094 43.9724 102.948C44.1891 102.864 44.3611 102.919 44.5214 103.066C44.9711 103.476 45.137 104.023 45.2227 104.594C45.3644 105.539 45.2018 106.427 44.5971 107.189ZM64.0383 98.1112C64.4262 98.4793 64.7938 98.8281 65.1632 99.1787C65.093 99.2433 65.0585 99.2996 65.0103 99.3159C63.9698 99.6691 62.9033 99.8334 61.803 99.7511C61.7293 99.7456 61.684 99.726 61.6927 99.6526C61.6988 99.6012 61.7118 99.5277 61.7474 99.5059C62.5019 99.0417 63.26 98.5834 64.0383 98.1112ZM62.8877 96.0119C63.0351 96.5042 63.2677 96.9585 63.5354 97.4363C63.3782 97.5559 63.3014 97.6436 63.1127 97.6792C62.354 97.8223 61.6621 98.1994 61.1562 98.7827C60.671 99.3422 60.3529 99.438 59.9919 99.1695C59.7376 98.9805 59.5109 98.7707 59.3425 98.5006C59.035 98.0075 59.0657 97.8753 59.5886 97.5757C60.5756 97.0104 61.5656 96.4506 62.5546 95.8887C62.7139 95.7982 62.8408 95.8554 62.8877 96.0119ZM62.6229 92.2529C62.6059 92.556 62.5855 92.8286 62.5765 93.1016C62.5661 93.4151 62.5641 93.7289 62.5615 94.0426C62.5592 94.3271 62.561 94.6117 62.561 94.949C61.4777 95.5867 60.354 96.2356 59.179 96.8674C59.1958 96.17 59.3396 95.7658 59.8202 94.9981C60.5231 93.8754 61.6354 92.7756 62.6229 92.2529ZM68.3084 74.5431C68.1376 74.5479 67.65 73.8108 67.6088 73.6409C67.5492 73.6057 66.9424 72.673 66.872 72.4783C66.872 72.4783 66.872 72.4783 66.872 72.4782C66.6865 72.3357 66.6079 72.1342 66.5634 71.9138C66.4905 71.7656 66.3788 71.5384 66.3058 71.3903C66.1368 71.2022 66.0714 70.9697 66.048 70.7195C66.0185 70.6754 66.0089 70.6273 66.0191 70.5752C65.8028 70.3183 65.7747 69.9972 65.7158 69.6866C65.6974 69.5886 65.6791 69.4907 65.6607 69.3927C65.4446 68.9969 65.3806 68.5662 65.3731 68.1226C65.3383 67.9541 65.2836 67.6904 65.2487 67.5219C65.1547 67.2807 65.1587 67.0259 65.1932 66.7668C65.1085 65.5685 65.1123 64.3704 65.1994 63.1725C65.2192 63.1546 65.2266 63.0456 65.1964 62.9997C65.1672 62.2609 65.3215 61.5366 65.3721 60.8041C65.4356 60.3089 65.499 59.815 65.5625 59.3198C65.734 58.4688 65.6689 57.5966 65.7453 56.737C65.8939 57.3631 65.9092 58.7318 65.8062 59.2551C65.7965 59.3049 65.3999 65.1598 65.4926 66.4414C65.5048 66.6099 65.4956 66.7941 65.4892 66.964C65.5101 67.2294 65.5311 67.4948 65.552 67.7602C65.7384 68.2032 65.7662 68.6783 65.8343 69.1452C65.8742 69.2756 65.9378 69.4832 65.9776 69.6135C66.1037 69.8548 66.1481 70.1224 66.1897 70.3909C66.1897 70.3909 66.1897 70.3909 66.1896 70.3909C66.1896 70.3909 66.1896 70.3909 66.1897 70.3909C66.221 70.4324 66.2338 70.4789 66.2283 70.5307C66.4337 70.7282 66.4615 70.9983 66.5236 71.2543C66.5916 71.4214 66.6597 71.5884 66.7276 71.7555C66.9057 71.8896 66.949 72.0957 67.0137 72.2904C67.13 72.5154 67.2463 72.7405 67.3625 72.9656C67.485 73.1069 67.6188 73.2423 67.6165 73.449L67.6163 73.4492C67.739 73.4645 68.3403 74.4789 68.3084 74.5431ZM78.0166 28.256C77.9416 28.3349 77.8736 28.4276 77.7471 28.4253C77.6046 28.5714 77.4512 28.7009 77.2479 28.755C77.0845 28.91 76.9139 29.0537 76.69 29.1149C76.6078 29.2288 76.5116 29.3212 76.3602 29.3279C76.3367 29.4274 76.2659 29.4717 76.1721 29.4887C75.9995 29.7314 75.7492 29.8731 75.4957 30.0106C75.2321 30.2664 74.9623 30.5145 74.6394 30.696C74.2635 31.0699 73.8897 31.4462 73.4341 31.727C73.4341 31.727 73.4341 31.727 73.4341 31.727C73.3984 31.8138 73.3404 31.8731 73.2421 31.8825C73.2237 31.9792 73.16 32.0332 73.0711 32.0634C72.4224 32.7846 71.7442 33.4766 71.0223 34.1251C70.9677 34.1844 70.9131 34.2439 70.8587 34.3031C70.5782 34.7606 70.204 35.1386 69.8304 35.5173C69.643 35.8393 69.4206 36.1337 69.1451 36.3862C69.145 36.3862 69.145 36.3862 69.1449 36.3862L69.145 36.3863C69.0718 36.5829 68.9481 36.7434 68.7915 36.8803C68.6715 37.1527 68.5192 37.4028 68.2936 37.6024C68.2936 37.6024 68.2936 37.6024 68.2935 37.6024L68.2936 37.6024C68.2968 37.6666 68.27 37.7137 68.2131 37.7436C68.1865 37.8033 68.1503 37.8563 68.1029 37.9014C68.0909 38.0049 68.0391 38.0813 67.9471 38.1303C67.9429 38.1253 67.9387 38.1203 67.9345 38.1154C67.9343 38.1159 67.9341 38.1165 67.9338 38.117C67.9445 38.1742 67.9238 38.2157 67.8718 38.2417C67.831 38.3022 67.7906 38.363 67.7508 38.4242C67.7419 38.5645 67.6521 38.6576 67.561 38.75C67.4917 38.8159 67.426 38.8839 67.4184 38.9869C67.1368 39.5594 66.8551 40.1318 66.5734 40.7043C66.5733 40.7043 66.5733 40.7043 66.5733 40.7043L66.5733 40.7044C66.5652 40.937 66.4439 41.1275 66.3416 41.325C66.2879 41.5157 66.2582 41.7179 66.1738 41.8939C66.0877 42.0737 66.136 42.3493 65.8517 42.4062C65.7345 42.2168 65.7855 42.0136 65.8357 41.8271C65.9163 41.5272 65.9858 41.2181 66.1781 40.9605C66.1714 40.7697 66.2689 40.62 66.3707 40.4719C66.6128 39.7284 66.9844 39.0503 67.4153 38.402C67.4199 38.3961 67.4248 38.3904 67.4296 38.3845C67.4365 38.314 67.4774 38.2654 67.5353 38.2279C67.539 38.2186 67.5436 38.21 67.5461 38.2C67.5727 38.1498 67.5992 38.0997 67.6258 38.0495C67.65 37.9914 67.6842 37.94 67.7301 37.8966L67.7375 37.8833C67.7429 37.8829 67.748 37.8827 67.7533 37.8824C67.7748 37.743 67.8726 37.6506 67.962 37.553C67.9997 37.4952 68.0402 37.4394 68.0833 37.3854L68.0868 37.3742C68.2072 37.1053 68.3511 36.8529 68.5855 36.664C68.5855 36.664 68.5855 36.664 68.5855 36.6639C68.6601 36.4704 68.7747 36.3061 68.9407 36.1796C69.1107 35.8451 69.3376 35.555 69.6211 35.3093C69.9238 34.873 70.2352 34.4445 70.6692 34.1243C70.6947 34.0381 70.7387 33.9718 70.8391 33.9662V33.9435C71.4374 33.1696 72.1222 32.4823 72.8969 31.8848L72.9199 31.8842C72.9345 31.7834 72.9984 31.7351 73.094 31.7208C73.1045 31.6218 73.1702 31.5748 73.2569 31.5473C73.5809 31.1189 74.0087 30.808 74.4402 30.5013C74.6853 30.2189 74.9726 29.9893 75.302 29.8123C75.4964 29.5938 75.7178 29.4137 75.9995 29.3186C76.0871 29.2142 76.1847 29.1266 76.3312 29.1211C76.3312 29.1211 76.3312 29.1211 76.3313 29.1211L76.3312 29.1211C76.3594 29.016 76.4345 28.9764 76.5364 28.9748C76.7104 28.781 76.9159 28.6375 77.1733 28.5774C77.1734 28.5774 77.1734 28.5775 77.1736 28.5776C77.1735 28.5775 77.1735 28.5774 77.1734 28.5772C77.3163 28.4058 77.4925 28.2942 77.7199 28.2755C77.7812 28.227 77.8369 28.1651 77.9063 28.1357C77.941 28.1209 78.0009 28.1654 78.0494 28.1831C78.0391 28.2077 78.034 28.2377 78.0166 28.256ZM114.459 31.9751C114.423 32.0366 114.372 32.0421 114.331 31.9815C114.273 31.8955 114.224 31.8026 114.171 31.7128C114.118 31.5952 114.064 31.4776 114.011 31.36C113.956 31.2472 113.9 31.1345 113.845 31.0218C113.845 31.0218 113.845 31.0218 113.845 31.0217C113.736 30.852 113.627 30.6822 113.519 30.5124C113.519 30.5124 113.519 30.5124 113.519 30.5123L113.519 30.5124C113.497 30.4563 113.476 30.3999 113.454 30.3436C113.281 30.3033 113.254 30.1469 113.194 30.017C113.034 29.8618 112.89 29.6961 112.82 29.4789C112.781 29.4278 112.742 29.3767 112.703 29.3255C112.557 29.2533 112.478 29.1257 112.422 28.98C112.203 28.7877 112.039 28.5538 111.906 28.2967C111.68 28.0061 111.453 27.7154 111.226 27.4249C110.976 27.1574 110.702 26.9088 110.533 26.5746C110.533 26.5746 110.533 26.5746 110.533 26.5746C110.482 26.5149 110.431 26.4553 110.38 26.3957C109.682 25.7731 108.987 25.1459 108.283 24.5297C107.944 24.2322 107.586 23.9551 107.236 23.6688C107.137 23.6165 107.03 23.5739 106.938 23.5105C104.697 21.9727 102.247 20.9304 99.5831 20.3887C99.4999 20.3718 99.4188 20.3444 99.3368 20.3218C99.2125 20.3532 99.1027 20.3318 99.0123 20.2364C98.8431 20.2163 98.674 20.1962 98.5048 20.1761C97.9356 20.1163 97.3664 20.0566 96.7972 19.9968L96.6376 19.9991C95.6582 20.0021 94.6786 20.0051 93.6991 20.0081C93.577 20.0109 93.4549 20.0138 93.3325 20.0166C93.3326 20.0165 93.3327 20.0165 93.3327 20.0164C93.3325 20.0165 93.3324 20.0165 93.3322 20.0166C93.1864 20.0265 93.0406 20.0365 92.8948 20.0464C92.8943 20.0467 92.8937 20.0468 92.8931 20.0471C92.6573 20.1705 92.406 20.2083 92.1429 20.1797C91.7988 20.2191 91.4739 20.3783 91.1181 20.3452C90.9577 20.364 90.7974 20.3827 90.637 20.4014L90.6243 20.4129C90.4212 20.5834 90.1733 20.5614 89.9333 20.5734C89.7374 20.7568 89.4815 20.7234 89.246 20.764C89.1105 20.9418 88.9063 20.9072 88.7219 20.9344C88.7218 20.9343 88.7217 20.9343 88.7217 20.9341C88.7217 20.9343 88.7217 20.9343 88.7217 20.9345C88.5218 21.1132 88.2538 21.1032 88.0198 21.1874C87.8042 21.2651 87.5886 21.3427 87.3729 21.4203C87.1703 21.6212 86.9217 21.7205 86.6421 21.7516C86.6411 21.7522 86.5756 21.7889 86.5756 21.7889C86.5756 21.7889 86.3064 21.9511 86.1737 21.9727C86.0505 22.1372 85.689 22.2934 85.689 22.2934C85.6891 22.2934 85.6892 22.2935 85.6892 22.2935C85.6606 22.4051 85.1341 22.9025 85.088 22.9386C85.017 23.0553 84.9525 23.177 84.8703 23.2853C84.8509 23.3108 84.762 23.3085 84.7234 23.2866C84.6897 23.2675 84.6575 23.197 84.6666 23.1592C84.7062 22.9926 84.7852 22.8479 84.9535 22.7737C85.0463 22.655 85.1225 22.5185 85.2822 22.4733C85.2822 22.4733 85.2823 22.4733 85.2823 22.4734L85.2822 22.4733C85.3056 22.3886 85.3529 22.3293 85.4466 22.3194C85.4466 22.3194 85.4466 22.3194 85.4467 22.3195C85.4467 22.3194 85.4467 22.3194 85.4467 22.3193C85.493 22.2893 85.5393 22.2592 85.5856 22.2292C85.7075 22.005 85.9161 21.8937 86.1408 21.8035C86.2443 21.7186 86.3402 21.6197 86.4873 21.6151C86.5414 21.5862 86.5952 21.5572 86.6493 21.5283C86.7787 21.354 86.9715 21.3035 87.1689 21.262C87.169 21.262 87.1691 21.2621 87.1692 21.2622C87.1691 21.2621 87.169 21.2621 87.1689 21.262C87.3739 21.1722 88.2743 20.7644 88.5511 20.7284C88.7213 20.6587 88.8746 20.5324 89.0773 20.571C89.3472 20.4737 89.6059 20.3306 89.9087 20.3683C89.9086 20.3683 89.9173 20.3675 89.9174 20.3675C90.1099 20.1877 90.3545 20.197 90.5922 20.181C90.8233 19.9954 91.0921 19.9939 91.367 20.0221C91.5509 19.8643 91.7681 19.8515 91.9945 19.8777C91.9946 19.8777 91.9946 19.8777 91.9946 19.8777C92.1526 19.8566 92.3104 19.8355 92.4683 19.8144C92.6223 19.6919 92.7962 19.6861 92.9779 19.7254C93.3332 19.7024 93.6884 19.6795 94.0436 19.6566C94.9058 19.4983 95.7677 19.4886 96.6299 19.6513C97.223 19.6724 97.823 19.6246 98.397 19.8318C98.3971 19.8318 98.3971 19.8318 98.3972 19.8318C98.397 19.8318 98.5019 19.8479 98.5019 19.8479C98.5019 19.8479 98.5019 19.848 98.502 19.848V19.8479C98.8344 19.8505 99.1741 19.8131 99.4701 20.0206C99.8211 19.9672 100.144 20.0944 100.476 20.1717C102.983 20.7564 105.252 21.859 107.354 23.3262C107.399 23.3573 107.427 23.4107 107.463 23.4537C108.647 24.2024 109.693 25.1039 110.551 26.2171C110.643 26.2406 110.691 26.3053 110.716 26.392C111.019 26.617 111.222 26.9255 111.415 27.2418C111.677 27.5011 111.907 27.7859 112.088 28.109C112.287 28.316 112.484 28.5245 112.581 28.8044C112.611 28.8551 112.641 28.9058 112.671 28.9564C112.819 29.0322 112.904 29.1534 112.93 29.317C112.954 29.3669 112.978 29.4168 113.002 29.4667C113.193 29.5845 113.291 29.7652 113.345 29.9758L113.345 29.9758C113.345 29.9758 113.345 29.9758 113.345 29.9758C113.498 30.0521 113.566 30.1876 113.6 30.3459C113.624 30.3985 113.647 30.4511 113.67 30.5035C113.67 30.5037 113.671 30.5038 113.671 30.504C113.86 30.6291 113.967 30.8016 113.974 31.0316C114.151 31.0789 114.155 31.2302 114.177 31.371C114.347 31.4256 114.342 31.5773 114.367 31.7124C114.367 31.7124 114.366 31.7124 114.366 31.7125C114.405 31.7763 114.446 31.8387 114.479 31.9053C114.487 31.9217 114.471 31.9544 114.459 31.9751ZM122.254 89.0879C122.085 89.0403 121.918 88.9908 121.861 88.793C121.807 88.7962 121.765 88.7759 121.733 88.7322C121.58 88.6699 121.364 88.4992 121.364 88.4992L121.342 88.4662C121.342 88.4647 121.329 88.4406 121.329 88.4391C121.274 88.4289 121.256 88.4054 121.202 88.3953C121.092 88.3416 120.983 88.2878 120.874 88.2342C120.705 88.1933 120.544 88.1405 120.478 87.9539C120.427 87.9465 120.387 87.9216 120.359 87.8789C120.192 87.8265 119.923 87.6114 119.923 87.6114L119.872 87.5807C119.754 87.5783 119.562 87.4091 119.562 87.4091C119.562 87.4091 119.503 87.3614 119.503 87.3611C119.345 87.2998 119.024 87.0337 118.972 87.0225C118.86 86.9677 118.749 86.9128 118.637 86.8581C118.469 86.8158 118.306 86.7671 118.241 86.5786C118.19 86.574 118.152 86.5502 118.127 86.507C117.956 86.4581 117.678 86.2391 117.678 86.2391L117.64 86.2094C117.523 86.2071 117.429 86.1713 117.403 86.0401C117.346 86.0527 117.301 86.0351 117.268 85.9875C117.107 85.9294 116.802 85.7006 116.802 85.7006L116.745 85.6488C116.57 85.6091 116.415 85.538 116.327 85.3676L116.327 85.3675C116.327 85.3676 116.269 85.3583 116.269 85.3583C116.151 85.3505 116.052 85.3179 116.025 85.1832C115.967 85.1978 115.923 85.1802 115.891 85.1303C115.725 85.082 115.557 85.0364 115.495 84.8438C115.492 84.8438 115.372 84.7946 115.372 84.7946C115.195 84.7581 115.043 84.6863 114.967 84.5076C114.964 84.5076 114.859 84.4592 114.859 84.4592C114.677 84.4258 114.388 84.1672 114.388 84.1672L114.344 84.1163C114.166 84.0791 114.018 84.0006 113.952 83.8164C113.897 83.788 113.843 83.7598 113.789 83.7316C113.712 83.7366 113.674 83.6966 113.662 83.6247C113.479 83.5827 113.337 83.4886 113.266 83.3073C113.213 83.2752 113.16 83.2432 113.107 83.2112C113.057 83.1746 113.008 83.138 112.959 83.1014C112.728 83.0227 112.558 82.8686 112.424 82.6694C112.338 82.6234 112.25 82.5785 112.23 82.4684C112.086 82.4399 111.992 82.3513 111.931 82.2217C111.825 82.2064 111.767 82.137 111.73 82.0438C111.628 82.0372 111.583 81.9691 111.555 81.8827C111.453 81.8749 111.407 81.8081 111.382 81.7189C111.281 81.7097 111.235 81.646 111.216 81.5541C111.216 81.554 111.216 81.5539 111.216 81.5538C111.216 81.5538 111.216 81.5539 111.216 81.5539C111.059 81.4952 110.952 81.3882 110.896 81.2295C110.896 81.2295 110.896 81.2294 110.896 81.2293C110.896 81.2293 110.896 81.2293 110.896 81.2294C110.806 81.2041 110.74 81.1556 110.732 81.0533C110.732 81.0533 110.732 81.0533 110.732 81.0532C110.732 81.0532 110.732 81.0532 110.732 81.0532C110.645 81.0263 110.578 80.9815 110.573 80.8804C110.485 80.8486 110.419 80.7962 110.408 80.6958C110.408 80.6957 110.408 80.6957 110.408 80.6957L110.408 80.6958C110.408 80.6959 110.377 80.659 110.377 80.6589C110.347 80.6416 110.33 80.6241 110.322 80.6062C110.284 80.5707 110.247 80.5354 110.209 80.5C109.962 80.3407 109.805 80.1064 109.671 79.8535C109.453 79.6557 109.292 79.4184 109.176 79.1492C109.031 78.9977 108.905 78.8344 108.859 78.6227C108.813 78.5923 108.793 78.5495 108.802 78.4944C108.559 78.2418 108.43 77.9292 108.331 77.6008C108.248 77.4369 108.12 77.2881 108.152 77.0842C108.021 76.8296 107.928 76.5647 107.936 76.2733C107.812 76.1356 107.802 75.9614 107.789 75.791C107.722 74.9019 107.721 74.0173 107.984 73.1523C107.993 73.0354 108.039 72.9405 108.172 72.9637C108.314 72.9883 108.299 73.11 108.275 73.2093C108.251 73.3107 108.205 73.4065 108.168 73.5048C108.151 74.3008 108.134 75.0969 108.118 75.893C108.188 76.2245 108.258 76.5561 108.328 76.8878C108.479 77.0133 108.503 77.1884 108.514 77.3683C108.665 77.6796 108.815 77.9908 108.966 78.302C109.01 78.3335 109.028 78.376 109.019 78.4297C109.199 78.5584 109.28 78.7523 109.357 78.9489C109.578 79.1484 109.721 79.4041 109.863 79.6604C110.067 79.8665 110.27 80.0739 110.378 80.3514C110.429 80.4204 110.48 80.4892 110.531 80.558C110.66 80.6131 110.741 80.7087 110.778 80.8433C110.778 80.8433 110.778 80.8433 110.778 80.8434L110.778 80.8433C110.877 80.861 110.923 80.9272 110.939 81.0205C111.041 81.0342 111.088 81.1007 111.106 81.1947C111.202 81.1963 111.246 81.2475 111.248 81.3404C111.343 81.3595 111.407 81.4109 111.419 81.5127C111.515 81.5322 111.579 81.5829 111.59 81.6859C111.686 81.7039 111.752 81.7517 111.763 81.8557C111.859 81.8719 111.926 81.9182 111.937 82.0226C112.05 82.0467 112.126 82.1121 112.161 82.2231C112.16 82.2231 112.16 82.2231 112.16 82.2231C112.16 82.2231 112.16 82.2231 112.161 82.2231C112.223 82.2128 112.258 82.2389 112.266 82.3014C112.32 82.3429 112.374 82.3845 112.427 82.4261C112.652 82.5211 112.828 82.6727 112.958 82.8788V82.8789C113.047 82.9098 113.129 82.9479 113.142 83.0573C113.197 83.0912 113.251 83.125 113.305 83.1589C113.305 83.1589 113.305 83.159 113.305 83.1591C113.305 83.1591 113.305 83.159 113.306 83.159C113.443 83.2146 113.577 83.2732 113.631 83.4288C113.631 83.4288 113.631 83.4289 113.631 83.4289C113.731 83.4336 113.809 83.4666 113.822 83.5809C113.88 83.6136 113.939 83.6463 113.997 83.6792C113.997 83.6792 113.997 83.6793 113.997 83.6793C113.997 83.6793 113.997 83.6793 113.997 83.6793C114.129 83.7391 114.209 83.8324 114.323 83.9447C114.323 83.9447 114.323 83.9448 114.323 83.9448C114.431 83.9484 114.501 84.0725 114.537 84.1037C114.564 84.1292 114.793 84.1549 114.838 84.3045C114.946 84.2963 115.025 84.3318 115.044 84.4503C115.037 84.455 115.038 84.4554 115.045 84.4503C115.187 84.4576 115.308 84.498 115.353 84.6538C115.465 84.6406 115.544 84.8121 115.568 84.7967C115.709 84.7984 115.835 84.8246 115.868 84.9927C115.933 85.0141 115.999 85.0356 116.064 85.057C116.11 85.0916 116.155 85.1263 116.201 85.161C116.201 85.161 116.201 85.1611 116.201 85.1611C116.201 85.1611 116.201 85.161 116.201 85.161C116.303 85.1645 116.386 85.1915 116.389 85.3154C116.542 85.3223 117.205 85.6781 117.242 85.8583C117.31 85.8769 117.363 85.9056 117.431 85.9242C117.474 85.9591 117.532 85.9838 117.575 86.0188C117.575 86.0189 117.576 86.019 117.576 86.0191C117.576 86.019 117.576 86.019 117.576 86.0189C117.677 86.0252 117.763 86.0495 117.763 86.1765C117.918 86.1805 118.052 86.2171 118.103 86.3871C118.103 86.3871 118.215 86.4019 118.271 86.4093C118.271 86.4093 118.271 86.4094 118.271 86.4094C118.412 86.4626 118.571 86.4899 118.625 86.6635C118.625 86.6635 118.625 86.6635 118.626 86.6635C118.761 86.7113 118.893 86.7625 118.96 86.9057C118.96 86.9057 119.611 87.2794 119.678 87.2962C119.722 87.3305 119.767 87.3647 119.811 87.399C119.811 87.399 119.811 87.3991 119.811 87.3992C119.811 87.3992 119.811 87.3991 119.811 87.399C119.914 87.404 120.448 87.7806 120.502 87.7861C120.503 87.7861 120.503 87.7861 120.503 87.7861C120.642 87.8455 120.809 87.8676 120.857 88.0503C120.857 88.0503 120.857 88.0504 120.857 88.0504C120.999 88.0861 121.113 88.1608 121.192 88.2857V88.2854C121.323 88.3322 121.505 88.4574 121.505 88.4574C121.505 88.4587 121.653 88.4743 121.712 88.6351C121.829 88.6006 121.895 88.6566 121.933 88.7617C121.933 88.7617 121.933 88.7617 121.933 88.7617C122.076 88.7427 122.192 88.771 122.229 88.9346C122.296 88.9496 122.379 88.9516 122.372 89.0475C122.371 89.0635 122.295 89.0744 122.254 89.0879ZM125.795 71.4745C125.759 71.4709 125.732 71.3952 125.7 71.3522C125.564 71.315 125.529 71.2134 125.533 71.0872C125.351 70.9239 125.285 70.7031 125.231 70.4766C125.122 70.1921 125.013 69.9075 124.904 69.623C124.846 69.4519 124.788 69.2808 124.73 69.1096C124.701 69.0004 124.672 68.8913 124.642 68.7821C124.642 68.7821 124.642 68.7821 124.642 68.782C124.45 68.5827 124.428 68.3218 124.384 68.0689C124.336 67.8396 124.173 67.6411 124.203 67.3911C124.18 67.2826 124.158 67.174 124.135 67.0654C123.964 66.8054 123.905 66.5103 123.866 66.2096C123.865 66.211 123.864 66.2124 123.863 66.2137C123.819 66.1718 123.807 66.1222 123.824 66.0647C123.829 66.0528 123.833 66.0404 123.837 66.028C123.833 66.0308 123.829 66.0338 123.824 66.0363C123.628 65.7091 123.574 65.3417 123.525 64.9729C123.507 64.8742 123.489 64.7755 123.471 64.6767C123.266 64.2889 123.18 63.8711 123.155 63.4375C123.089 63.2111 122.957 62.9994 123 62.7483C122.981 62.6526 122.962 62.5569 122.943 62.4611C122.789 62.3078 122.788 62.1148 122.794 61.9199L122.763 61.8841L122.787 61.8419C122.787 61.8418 122.787 61.8417 122.787 61.8415C122.646 61.6525 122.621 61.3854 122.633 61.2328C122.595 61.198 122.586 61.1566 122.605 61.1087C122.608 61.097 122.612 61.0851 122.614 61.0731C122.611 61.0755 122.608 61.0781 122.605 61.0804C122.399 60.626 122.37 60.1355 122.312 59.6508C122.296 59.5012 122.279 59.3516 122.263 59.2019C122.151 58.9636 122.091 58.7165 122.137 58.4518C122.122 58.2939 122.107 58.136 122.092 57.9781C121.977 57.7441 121.928 57.5 121.975 57.2404C121.954 56.9735 121.934 56.7068 121.913 56.4399C121.716 55.9483 121.749 55.4298 121.736 54.9167C121.541 54.2161 121.542 53.4903 121.461 52.7749C121.448 52.549 121.434 52.323 121.421 52.0971C121.224 51.7302 121.247 51.3266 121.225 50.9305C121.007 50.4896 121.015 50.003 120.942 49.5327C120.941 49.5341 120.94 49.5354 120.938 49.5368C120.926 49.37 120.914 49.2031 120.902 49.0363C120.91 49.0362 120.917 49.036 120.924 49.0359C120.917 49.028 120.91 49.0189 120.902 49.0079C120.709 48.7497 120.711 48.4516 120.727 48.1505C120.487 47.8441 120.544 47.4549 120.437 47.1117C120.424 47.009 120.411 46.9065 120.398 46.8038C120.396 46.8019 120.395 46.8005 120.393 46.7983C120.228 46.6087 120.208 46.3768 120.203 46.1408C120.213 46.1284 120.224 46.1161 120.234 46.1037C120.225 46.1074 120.215 46.1106 120.203 46.1124C119.979 45.8517 120.006 45.5117 119.917 45.2081C119.86 44.9833 119.803 44.7584 119.746 44.5336C119.721 44.4228 119.695 44.312 119.669 44.2013C119.448 44.0139 119.494 43.7276 119.408 43.4903C119.386 43.3903 119.365 43.2905 119.343 43.1905C119.14 42.993 119.152 42.7169 119.078 42.4721C119.076 42.4747 119.074 42.4772 119.072 42.4797C119 42.2303 118.935 42.0076 118.878 41.8105C118.84 41.7687 118.825 41.7201 118.834 41.6645C118.845 41.6522 118.855 41.6411 118.865 41.6298C118.856 41.6327 118.846 41.6353 118.834 41.6362C118.624 41.4492 118.646 41.168 118.55 40.9349C118.547 40.9381 118.545 40.9413 118.542 40.9445C118.486 40.7714 118.431 40.5982 118.375 40.425C118.335 40.3767 118.326 40.3233 118.349 40.2648C118.248 40.1143 118.147 39.9636 118.151 39.7708C117.917 39.4081 117.751 39.0148 117.622 38.6041C117.622 38.6041 117.622 38.604 117.622 38.6039C117.457 38.4456 117.392 38.2386 117.342 38.024C117.355 37.9789 117.359 37.9003 117.381 37.8948C117.477 37.8708 117.502 37.9567 117.535 38.0237C117.67 38.0658 117.68 38.1768 117.681 38.2924C117.964 38.6898 118.16 39.1279 118.294 39.5952C118.37 39.8182 118.528 40.0132 118.525 40.2635C118.679 40.3706 118.704 40.5311 118.715 40.6975C118.716 40.6973 118.716 40.697 118.717 40.6968C118.9 40.917 118.932 41.1918 118.992 41.4563C118.974 41.4773 118.963 41.5047 118.951 41.5318C118.966 41.515 118.98 41.499 118.992 41.4846C119.009 41.5927 119.026 41.7007 119.043 41.8087C119.214 41.9165 119.205 42.0948 119.226 42.2614C119.228 42.2613 119.229 42.2608 119.23 42.2606C119.444 42.4637 119.425 42.7525 119.503 43.0054C119.521 43.1053 119.539 43.2051 119.557 43.3049C119.777 43.5628 119.778 43.8944 119.859 44.1991C119.872 44.3097 119.885 44.4205 119.897 44.5311C120.09 44.6466 120.056 44.8442 120.076 45.0227C120.3 45.2834 120.278 45.6214 120.36 45.9268C120.347 45.9474 120.337 45.9705 120.327 45.9934C120.338 45.9806 120.349 45.9679 120.36 45.9551C120.415 46.2014 120.476 46.4734 120.543 46.7704C120.545 46.7704 120.547 46.7704 120.549 46.7704C120.564 46.8821 120.579 46.994 120.594 47.1058C120.594 47.1058 120.595 47.1058 120.595 47.1059C120.829 47.414 120.807 47.7935 120.885 48.145C120.939 48.4328 121.084 48.702 121.063 49.0054C121.055 49.0166 121.048 49.0259 121.041 49.0341C121.048 49.0339 121.055 49.0339 121.063 49.0338C121.073 49.1052 121.086 49.2015 121.103 49.3208C121.105 49.3205 121.106 49.3199 121.107 49.3196C121.343 49.7634 121.332 50.2581 121.401 50.7363C121.428 51.1949 121.619 51.6316 121.582 52.0988C121.597 52.2577 121.612 52.4166 121.627 52.5754C121.663 52.6487 121.721 52.7192 121.73 52.7957C121.799 53.3663 121.859 53.938 121.921 54.5094C121.962 55.0281 122.125 55.5334 122.092 56.0602C122.109 56.2718 122.127 56.4833 122.145 56.6948C122.279 56.9258 122.306 57.1746 122.268 57.4344C122.282 57.5898 122.297 57.7452 122.312 57.9007C122.312 57.9007 122.312 57.9007 122.312 57.9007C122.415 58.0728 122.456 58.2583 122.431 58.4576C122.436 58.5158 122.44 58.574 122.444 58.6322C122.461 58.783 122.478 58.9338 122.496 59.0846C122.682 59.5476 122.708 60.0419 122.777 60.5277C122.761 60.5458 122.75 60.5655 122.741 60.5859C122.752 60.5756 122.764 60.5656 122.777 60.5561C122.839 60.9066 123.01 61.2641 122.996 61.6831C123.1 61.8553 123.168 62.0362 123.127 62.2426C123.127 62.2426 123.127 62.2426 123.127 62.2427C123.127 62.2427 123.127 62.2426 123.127 62.2426C123.141 62.3418 123.155 62.4412 123.17 62.5405C123.34 62.7406 123.331 62.9872 123.348 63.2269C123.542 63.562 123.582 63.9375 123.633 64.3104C123.651 64.4094 123.669 64.5084 123.687 64.6075C123.881 64.9405 123.935 65.3115 123.979 65.6851C123.962 65.7032 123.95 65.7239 123.942 65.7461C123.953 65.7346 123.965 65.7235 123.979 65.7134C123.988 65.7828 124 65.877 124.016 65.9941C124.017 65.9938 124.018 65.9931 124.019 65.9928C124.21 66.3196 124.27 66.6836 124.32 67.0502C124.343 67.1604 124.365 67.2707 124.387 67.381C124.558 67.5071 124.532 67.6965 124.546 67.8731C124.759 68.136 124.754 68.4688 124.836 68.7735C124.852 68.8847 124.867 68.9957 124.882 69.1068C125.076 69.2335 125.062 69.4291 125.054 69.6229C125.262 69.8731 125.342 70.1735 125.39 70.4862C125.539 70.5395 125.561 70.6682 125.576 70.8003C125.576 70.8003 125.576 70.8004 125.577 70.8005C125.742 70.9492 125.798 71.1527 125.856 71.3559C125.888 71.4239 125.866 71.4818 125.795 71.4745ZM145.581 100.758C145.532 101.034 145.361 101.195 145.099 101.27C144.954 101.417 144.775 101.478 144.572 101.481C144.407 101.651 144.2 101.65 143.988 101.622C143.928 101.626 143.868 101.629 143.808 101.632C143.507 101.841 143.171 101.805 142.835 101.772C142.835 101.772 142.835 101.772 142.834 101.772C141.764 101.853 140.694 101.916 139.623 101.776C139.623 101.776 139.623 101.776 139.622 101.776C139.438 101.821 139.258 101.799 139.082 101.732C138.86 101.683 138.637 101.634 138.415 101.586C138.225 101.564 138.051 101.511 137.927 101.347C138.118 101.227 138.28 101.228 138.397 101.445C138.765 101.433 139.129 101.455 139.473 101.605C139.516 101.576 139.551 101.583 139.578 101.626C140.257 101.616 140.935 101.606 141.613 101.596C141.613 101.596 141.614 101.596 141.614 101.596C142.019 101.461 142.436 101.456 142.856 101.478C142.856 101.478 142.856 101.478 142.856 101.478C143.135 101.453 143.414 101.428 143.694 101.403C143.865 101.276 144.059 101.265 144.261 101.291C144.261 101.291 144.261 101.291 144.261 101.292C144.261 101.291 144.261 101.291 144.261 101.291C144.48 101.225 144.698 101.159 144.916 101.093C145.04 100.986 145.163 100.879 145.287 100.772C145.375 100.436 145.231 100.176 145.016 99.9399C144.811 99.7162 144.603 99.4954 144.397 99.2733C144.304 99.2382 144.223 99.192 144.213 99.0789C144.103 99.0672 144.032 99.011 144.01 98.8999C144.046 98.8845 144.077 98.862 144.103 98.8327C144.072 98.8551 144.041 98.8774 144.01 98.8998C143.945 98.9137 143.903 98.8889 143.884 98.8255C143.834 98.7876 143.784 98.7498 143.734 98.7119C143.732 98.7142 143.731 98.7167 143.729 98.7191C143.498 98.6315 143.326 98.4738 143.193 98.2689C143.099 98.22 143.007 98.1692 142.986 98.0502C143.015 98.0374 143.04 98.0185 143.06 97.9935C143.035 98.0123 143.01 98.0312 142.985 98.0501C142.921 98.0664 142.877 98.043 142.853 97.9802C142.787 97.9299 142.721 97.8795 142.655 97.8292C142.576 97.8462 142.542 97.8054 142.53 97.7347C142.53 97.7346 142.53 97.7345 142.53 97.7344C142.436 97.6963 142.347 97.6527 142.333 97.5355C142.232 97.5218 142.161 97.4784 142.156 97.3652C142.152 97.3613 142.15 97.3577 142.147 97.3539C142.039 97.346 141.981 97.32 141.954 97.1903C141.953 97.1909 141.952 97.1915 141.951 97.192C141.887 97.2068 141.844 97.1825 141.824 97.1191C141.76 97.0669 141.696 97.0146 141.632 96.9623C141.553 96.9786 141.519 96.9341 141.502 96.8661C141.502 96.866 141.502 96.8659 141.502 96.8659C141.405 96.8364 141.323 96.791 141.304 96.6792C141.209 96.6594 141.138 96.6147 141.129 96.5072C141.03 96.4933 140.962 96.4477 140.957 96.3376C140.85 96.3261 140.78 96.2757 140.768 96.162C140.783 96.1444 140.801 96.1298 140.819 96.1145C140.802 96.1303 140.785 96.1461 140.768 96.162C140.661 96.1565 140.597 96.1023 140.582 95.9945C140.612 95.9756 140.638 95.9528 140.661 95.9258C140.635 95.9488 140.608 95.9717 140.582 95.9945C140.539 95.9651 140.497 95.9358 140.454 95.9064C140.307 95.844 140.188 95.7524 140.125 95.6001C140.02 95.5805 139.961 95.5104 139.925 95.4164C139.925 95.4186 139.924 95.4208 139.924 95.423C139.823 95.413 139.779 95.343 139.749 95.2576C139.648 95.248 139.604 95.1782 139.575 95.0925C139.474 95.0821 139.429 95.0135 139.403 94.9257C139.301 94.9134 139.256 94.8446 139.231 94.7553C139.131 94.7434 139.086 94.6764 139.064 94.5873C139.064 94.5872 139.064 94.5872 139.064 94.587C139.064 94.5871 139.064 94.5871 139.064 94.5872C138.91 94.5289 138.806 94.4223 138.751 94.2684C138.751 94.2683 138.751 94.2683 138.751 94.2682C138.751 94.2682 138.751 94.2682 138.75 94.2682C138.662 94.2418 138.594 94.1944 138.583 94.0935C138.583 94.0935 138.583 94.0934 138.583 94.0934C138.583 94.0934 138.583 94.0934 138.583 94.0934C138.495 94.0668 138.428 94.0201 138.417 93.9199C138.417 93.9198 138.417 93.9198 138.417 93.9198C138.417 93.9198 138.417 93.9198 138.417 93.9198C138.329 93.8916 138.262 93.8445 138.25 93.744C138.25 93.744 138.25 93.7439 138.25 93.7439C138.25 93.7439 138.25 93.7439 138.25 93.7439C138.156 93.711 138.088 93.6533 138.069 93.55C137.917 93.4874 137.824 93.3689 137.761 93.2226C137.761 93.2226 137.761 93.2226 137.761 93.2225C137.761 93.2225 137.761 93.2225 137.761 93.2225C137.728 93.1782 137.696 93.1337 137.664 93.0895C137.664 93.0893 137.664 93.0891 137.664 93.089C137.562 93.0743 137.51 93.0135 137.503 92.9108C137.392 92.897 137.34 92.8277 137.325 92.7224C137.213 92.7136 137.167 92.6307 137.125 92.5438C136.854 92.3656 136.648 92.1303 136.504 91.8398C136.432 91.8096 136.375 91.7679 136.377 91.6791C136.378 91.679 136.378 91.679 136.378 91.679C136.378 91.679 136.377 91.679 136.377 91.679C136.312 91.6593 136.283 91.6153 136.291 91.5476C136.184 91.5257 136.133 91.454 136.119 91.3506C136.01 91.3396 135.968 91.26 135.937 91.1705C135.728 91.0418 135.577 90.8641 135.489 90.6346C135.436 90.6118 135.417 90.5727 135.431 90.5174C135.319 90.4916 135.271 90.4017 135.225 90.3103C135.027 90.1777 134.883 90.0022 134.803 89.7767C134.749 89.748 134.724 89.7035 134.727 89.6428C134.626 89.62 134.588 89.5401 134.559 89.4531C134.4 89.3764 134.304 89.2518 134.271 89.0783C134.196 88.9744 134.121 88.8704 134.045 88.7666C133.885 88.7021 133.816 88.5615 133.752 88.417C133.538 88.2185 133.373 87.9854 133.256 87.7179C133.122 87.5587 132.977 87.4071 132.922 87.1974C132.704 86.9384 132.506 86.6669 132.376 86.3514C132.1 86.0393 131.883 85.6903 131.729 85.3029C131.684 85.2721 131.664 85.2296 131.669 85.1755C131.432 84.9872 131.34 84.7093 131.222 84.4481C131.071 84.2335 130.926 84.0164 130.868 83.7549C130.873 83.7489 130.878 83.7428 130.883 83.7367C130.877 83.736 130.871 83.7357 130.864 83.7348C130.674 83.4244 130.479 83.0968 130.357 82.7093C130.31 82.6804 130.291 82.6396 130.299 82.588C130.123 82.4674 130.082 82.2602 130 82.0871C129.259 80.5391 128.644 78.941 128.133 77.3029C128.066 77.0886 128.035 76.863 127.993 76.6416C127.989 76.6234 128.023 76.5814 128.044 76.5784C128.095 76.5708 128.185 76.5626 128.195 76.5844C128.291 76.7907 128.381 77.0006 128.459 77.2143C128.861 78.3137 129.247 79.419 129.663 80.513C129.903 81.1458 130.188 81.7618 130.454 82.3852C130.455 82.3837 130.456 82.3824 130.457 82.381C130.506 82.4189 130.52 82.4668 130.499 82.525C130.741 82.8303 130.896 83.1812 131.031 83.5427C131.034 83.551 131.036 83.5575 131.038 83.5651C131.163 83.618 131.198 83.7218 131.197 83.8469C131.199 83.8912 131.21 83.9298 131.227 83.9648C131.246 83.9897 131.262 84.0144 131.276 84.0371C131.3 84.0651 131.326 84.0912 131.354 84.1166C131.394 84.1318 131.406 84.1593 131.39 84.199C131.598 84.4271 131.73 84.698 131.831 84.9859C131.875 85.0189 131.892 85.0625 131.884 85.1165C132.163 85.4334 132.366 85.7959 132.535 86.18C132.714 86.4663 132.894 86.7526 133.073 87.0389C133.244 87.1652 133.338 87.3456 133.424 87.532C133.636 87.7345 133.811 87.9629 133.91 88.2426C133.91 88.243 133.909 88.2435 133.909 88.2439C133.909 88.2435 133.91 88.243 133.91 88.2426C133.943 88.2947 133.977 88.3469 134.011 88.399C134.146 88.4817 134.247 88.5897 134.266 88.7557L134.262 88.7783C134.392 88.8419 134.458 88.9559 134.507 89.0843C134.658 89.1585 134.753 89.2764 134.783 89.4435C134.822 89.4982 134.862 89.5529 134.901 89.6076C134.901 89.6076 134.901 89.6077 134.901 89.6077C134.901 89.6077 134.901 89.6077 134.901 89.6077C134.948 89.6628 134.995 89.718 135.042 89.7732C135.042 89.7734 135.042 89.7735 135.042 89.7736C135.236 89.908 135.378 90.083 135.461 90.3046C135.515 90.327 135.534 90.3664 135.519 90.4227C135.519 90.4228 135.519 90.4228 135.519 90.4228C135.631 90.4498 135.679 90.5413 135.726 90.633C135.924 90.7654 136.074 90.9378 136.16 91.1622C136.202 91.2172 136.244 91.2722 136.287 91.3273L136.286 91.3273C136.287 91.3273 136.287 91.3273 136.287 91.3273C136.316 91.3725 136.345 91.4177 136.374 91.4629C136.362 91.4757 136.349 91.4884 136.337 91.5013C136.349 91.4886 136.361 91.475 136.374 91.4631C136.485 91.4822 136.532 91.5568 136.547 91.66C136.657 91.6684 136.699 91.7479 136.731 91.8368C137.007 92.0118 137.203 92.2581 137.359 92.5405C137.403 92.595 137.447 92.6495 137.491 92.7039C137.491 92.7039 137.491 92.7039 137.491 92.704C137.491 92.704 137.491 92.704 137.491 92.704C137.558 92.7183 137.587 92.7594 137.579 92.8272C137.554 92.855 137.529 92.8829 137.504 92.9107C137.532 92.8861 137.557 92.8583 137.579 92.8274C137.682 92.8458 137.738 92.9076 137.746 93.0124C137.746 93.0126 137.746 93.0128 137.745 93.0131C137.855 93.0296 137.908 93.0992 137.923 93.2043C138.027 93.1997 138.07 93.2531 138.065 93.3518C138.178 93.3714 138.241 93.4401 138.259 93.5514C138.367 93.5588 138.415 93.6243 138.43 93.7236C138.536 93.7323 138.584 93.7983 138.6 93.8965C138.705 93.9053 138.754 93.9703 138.771 94.068C138.875 94.0784 138.925 94.1434 138.942 94.24C139.041 94.2427 139.09 94.2944 139.094 94.3917C139.191 94.4095 139.254 94.4606 139.266 94.563C139.362 94.5813 139.425 94.6324 139.437 94.7349C139.534 94.7532 139.598 94.8033 139.609 94.9067C139.705 94.9242 139.771 94.9731 139.781 95.0778C139.876 95.0938 139.94 95.1405 139.951 95.2405C139.952 95.2402 139.952 95.2398 139.953 95.2394C140.052 95.2543 140.118 95.3021 140.125 95.4095C140.236 95.4282 140.304 95.4902 140.322 95.6033C140.423 95.5995 140.477 95.6429 140.472 95.748C140.472 95.748 140.472 95.748 140.472 95.748C140.578 95.7615 140.647 95.8141 140.661 95.9259C140.766 95.9321 140.828 95.9859 140.846 96.0898C140.846 96.0898 140.846 96.0898 140.846 96.0899C140.915 96.0828 140.958 96.1129 140.975 96.1803C141.071 96.1889 141.119 96.2548 141.154 96.3345C141.254 96.3409 141.301 96.4109 141.34 96.4908C141.415 96.4845 141.462 96.5132 141.469 96.593C141.562 96.6318 141.65 96.6756 141.666 96.7912C141.763 96.8084 141.836 96.8494 141.841 96.9605C141.841 96.9605 141.841 96.9605 141.841 96.9606C141.943 96.973 142.014 97.0176 142.027 97.1255C142.028 97.125 142.028 97.1247 142.029 97.1241C142.08 97.1541 142.13 97.1839 142.181 97.2139C142.18 97.2176 142.179 97.2213 142.179 97.225C142.179 97.225 142.18 97.2245 142.181 97.2245C142.241 97.2729 142.301 97.3214 142.361 97.3699C142.442 97.3604 142.484 97.4024 142.501 97.4768C142.599 97.4973 142.678 97.5391 142.696 97.6492C142.79 97.6704 142.866 97.7105 142.87 97.8222C142.87 97.8222 142.87 97.8222 142.871 97.8223C142.974 97.8345 143.05 97.8779 143.06 97.9935C143.121 97.9765 143.167 97.9954 143.197 98.0504C143.42 98.1432 143.603 98.2846 143.728 98.4941C143.728 98.4941 143.728 98.4941 143.728 98.4942C143.728 98.4907 143.728 98.4871 143.728 98.4835C143.817 98.5142 143.899 98.552 143.905 98.6634C144.009 98.6764 144.084 98.7219 144.104 98.8325C144.151 98.8631 144.199 98.8936 144.246 98.9241C144.332 98.922 144.372 98.9786 144.402 99.0479C144.823 99.271 145.128 99.6237 145.421 99.9843C145.52 100.106 145.633 100.243 145.595 100.428C145.635 100.54 145.637 100.65 145.581 100.758Z" fill="black"/>
<path id="Vector_3" d="M123.566 64.8792C123.552 64.9104 123.538 64.9417 123.524 64.9729C123.548 64.9458 123.559 64.9135 123.566 64.8792Z" fill="black"/>
<path id="Vector_4" d="M118.375 40.4246C118.399 40.3758 118.422 40.3263 118.444 40.276C118.444 40.2758 118.525 40.2635 118.525 40.2635L118.484 40.2479L118.443 40.2646C118.412 40.2646 118.38 40.2646 118.349 40.2647C118.38 40.2661 118.412 40.2661 118.443 40.2647C118.42 40.318 118.397 40.3713 118.375 40.4246Z" fill="black"/>
</g>
<g id="Group_4">
<path id="Vector_5" d="M145.362 100.758C145.362 100.758 145.362 100.758 145.362 100.758C145.394 100.758 145.426 100.758 145.458 100.759L145.408 100.756C145.408 100.756 145.373 100.757 145.362 100.758Z" fill="black"/>
<path id="Vector_6" d="M134.148 89.0783C134.171 89.0595 134.195 89.0407 134.218 89.0218C134.259 89.0253 134.297 89.0362 134.333 89.0537C134.274 89.0185 134.216 88.9833 134.157 88.9481C134.122 88.9893 134.118 89.0327 134.148 89.0783Z" fill="black"/>
</g>
<path id="Vector_7" d="M78.6927 45.9364C78.4849 45.3975 78.1768 44.9185 77.6609 44.6056C77.0092 44.2102 76.3554 44.3259 75.9439 44.9579C75.5319 45.5905 75.2691 46.2804 75.3058 46.9372C75.3123 47.7988 75.5173 48.4636 75.8766 48.9034C76.399 49.543 77.1876 49.6639 77.8601 49.1889C78.0439 49.059 78.2301 48.9017 78.3481 48.7147C78.8955 47.8475 79.0704 46.9158 78.6927 45.9364ZM77.0636 47.502C77.0129 47.6083 76.9196 47.6812 76.8005 47.6847C76.6828 47.6881 76.5825 47.6315 76.5218 47.5246C76.3223 47.1731 76.2237 46.7952 76.2319 46.3374C76.2342 46.3056 76.2358 46.2206 76.2471 46.1367C76.2812 45.8836 76.4229 45.6957 76.5734 45.704C76.7929 45.716 76.9542 45.8419 77.0365 46.0264C77.2521 46.5097 77.2996 47.0067 77.0636 47.502ZM77.9436 47.7524C77.9086 47.7911 77.8587 47.8526 77.8236 47.8474C77.7521 47.8365 77.6546 47.8047 77.6252 47.7506C77.5753 47.6588 77.57 47.5428 77.5494 47.4522C77.5986 47.3459 77.5685 47.1931 77.727 47.2175C77.7969 47.2283 77.8882 47.2909 77.9141 47.3531C77.954 47.4491 77.9476 47.5649 77.9576 47.6727C77.96 47.6992 77.959 47.7353 77.9436 47.7524Z" fill="#010101"/>
<path id="Vector_8" d="M91.8756 48.7845C91.8952 48.276 91.732 47.8251 91.4533 47.4177C90.8003 46.4628 89.6623 46.4213 88.9359 47.3183C88.2821 48.1255 88.2172 49.4972 88.7915 50.3653C89.4458 51.3543 90.6459 51.4023 91.3633 50.46C91.7391 49.9665 91.8902 49.396 91.8756 48.7845ZM90.086 49.321C89.999 49.4332 89.8581 49.5213 89.717 49.4685C89.6251 49.434 89.5249 49.3243 89.4987 49.2289C89.3845 48.8123 89.3873 48.3903 89.542 47.9817C89.6027 47.8213 89.7015 47.6793 89.9015 47.669C90.0844 47.6594 90.2747 47.8192 90.3153 48.0237C90.3372 48.1339 90.3434 48.2473 90.3434 48.247C90.3573 48.707 90.304 49.0402 90.086 49.321ZM90.9439 49.6223C90.8772 49.7395 90.8093 49.8736 90.636 49.8136C90.5213 49.7739 90.4758 49.6755 90.4731 49.4976C90.4787 49.4784 90.4839 49.3898 90.5273 49.3278C90.59 49.2381 90.6824 49.1741 90.8071 49.22C90.922 49.2622 90.9768 49.3514 90.9828 49.4664C90.9855 49.518 90.9698 49.5771 90.9439 49.6223Z" fill="#020202"/>
<path id="Vector_9" d="M82.6655 151.662C81.0035 151.603 79.3488 151.748 77.6923 151.839C77.4645 151.851 77.2368 151.895 77.0113 151.822C76.8624 151.774 76.7689 151.68 76.7616 151.518C76.7545 151.357 76.8352 151.231 76.974 151.18C77.1322 151.122 77.3057 151.101 77.4743 151.076C78.6383 150.899 79.8142 150.9 80.9854 150.889C83.7321 150.865 86.4802 150.902 89.2174 151.149C91.2954 151.337 93.3643 151.618 95.4115 152.037C96.7268 152.306 98.0438 152.566 99.358 152.841C99.6356 152.899 99.9113 152.983 100.174 153.09C100.333 153.154 100.449 153.297 100.407 153.5C100.376 153.651 100.192 153.77 100.002 153.736C99.5519 153.656 99.106 153.554 98.6566 153.472C96.2405 153.026 93.8367 152.505 91.3965 152.202C89.8075 152.004 88.2153 151.83 86.6111 151.794C85.2956 151.763 83.9808 151.707 82.6655 151.662Z" fill="#020101"/>
<path id="Vector_10" d="M83.5154 69.1797C82.0818 69.1761 80.8621 68.8472 80 68.2152C79.3423 67.7329 79.0766 67.1933 79.0626 66.6222C79.0612 66.5672 79.0782 66.5094 79.1153 66.4577C79.1668 66.3861 79.2855 66.3474 79.4501 66.3503C79.6068 66.3531 79.7425 66.384 79.7918 66.4557C79.8365 66.5208 79.8403 66.5925 79.8569 66.6617C79.9202 66.9257 79.9605 67.1922 80.1553 67.4439C80.2766 67.6007 80.3934 67.7609 80.5629 67.906C81.3594 68.5872 82.8042 68.899 84.4141 68.7566C85.4153 68.668 86.2914 68.4552 87.0745 68.1527C88.8949 67.4497 90.0002 66.5349 90.507 65.4475C90.6154 65.215 90.6797 64.98 90.6956 64.7408C90.7089 64.5419 90.9117 64.4326 91.1655 64.4563C91.4012 64.4784 91.5398 64.5784 91.5219 64.7525C91.4772 65.1874 91.3178 65.6132 91.0349 66.0279C90.4427 66.8963 89.4742 67.6502 88.0637 68.2681C87.3245 68.5919 86.495 68.8472 85.5518 69.0163C84.9426 69.1255 84.3159 69.1778 83.5154 69.1797Z" fill="#020202"/>
<path id="Vector_11" d="M52.5016 87.4997C52.4823 87.5466 52.4665 87.6378 52.4148 87.699C52.3426 87.7844 52.2486 87.8545 52.1554 87.9187C50.4484 89.0958 48.9557 90.5168 47.5591 92.0355C45.1045 94.7045 43.0624 97.6637 41.4551 100.919C41.2526 101.328 41.0393 101.733 40.8257 102.138C40.7592 102.264 40.6834 102.386 40.5978 102.5C40.4831 102.652 40.2762 102.688 40.1423 102.587C39.9871 102.469 39.9344 102.306 40.0175 102.132C40.4746 101.179 40.9063 100.211 41.4083 99.281C43.3959 95.5997 45.9161 92.3242 48.9799 89.4713C49.7345 88.7687 50.5161 88.0978 51.3567 87.4986C51.5658 87.3495 51.7659 87.1845 52.0205 87.1127C52.2404 87.0507 52.5168 87.2508 52.5016 87.4997Z" fill="#020202"/>
<path id="Vector_12" d="M96.7759 47.6407C96.7286 47.8389 96.6701 47.9669 96.514 48.0092C96.3695 48.0482 96.2168 48.0414 96.1224 47.9171C96.0206 47.7831 95.9365 47.6306 95.8707 47.4752C95.3706 46.2946 94.5086 45.4521 93.4087 44.8342C92.2582 44.1878 91.0466 43.708 89.7364 43.4923C89.2796 43.4171 88.8309 43.39 88.38 43.5156C88.2708 43.546 88.1564 43.5689 88.0437 43.5726C87.9273 43.5765 87.8127 43.5299 87.7599 43.421C87.6935 43.2841 87.7046 43.1256 87.8108 43.0227C87.9079 42.9285 88.0437 42.864 88.1733 42.8156C88.7257 42.6091 89.3044 42.6292 89.8656 42.7188C91.6388 43.0019 93.2604 43.67 94.712 44.7351C95.5854 45.376 96.202 46.2198 96.6352 47.2036C96.703 47.3577 96.7396 47.5254 96.7759 47.6407Z" fill="#040303"/>
<path id="Vector_13" d="M84.1566 56.1673C84.3266 56.1673 84.5002 56.1458 84.6654 56.174C84.8051 56.1977 84.9251 56.2874 84.9645 56.4465C85.0014 56.5958 84.8986 56.7931 84.7379 56.8666C84.6861 56.8903 84.6326 56.9126 84.5776 56.9265C83.0329 57.3163 81.3218 56.3401 80.8318 54.7905C80.5259 53.8229 80.7387 53.0256 81.5331 52.4241C82.2446 51.8854 82.9128 51.3103 83.475 50.6147C83.543 50.5306 83.6467 50.4665 83.7461 50.4186C83.9259 50.3319 84.1654 50.5229 84.157 50.7238C84.1492 50.9088 84.0547 51.0475 83.9486 51.1832C83.5597 51.6809 83.1306 52.1408 82.646 52.5471C82.4705 52.6942 82.2868 52.8313 82.1102 52.9772C81.4909 53.4892 81.3478 54.0749 81.7012 54.7989C82.0461 55.5055 82.5907 55.981 83.3894 56.1132C83.6424 56.155 83.8985 56.1776 84.1531 56.2089C84.1542 56.195 84.1555 56.1811 84.1566 56.1673Z" fill="#050404"/>
<path id="Vector_14" d="M59.7669 114.529C59.5919 114.95 59.4205 115.372 59.2414 115.791C58.6321 117.216 57.8396 118.527 56.8131 119.694C56.3423 120.229 55.8897 120.78 55.4277 121.323C55.2983 121.475 55.1709 121.637 54.9715 121.697C54.8565 121.732 54.7397 121.687 54.6738 121.583C54.6313 121.516 54.5836 121.414 54.6064 121.353C54.6547 121.224 54.7372 121.103 54.824 120.994C55.2318 120.48 55.6289 119.957 56.0607 119.464C57.3934 117.942 58.3545 116.21 59.0372 114.314C59.1333 114.047 59.2439 113.784 59.3705 113.531C59.4748 113.322 59.6686 113.285 59.8841 113.342C60.4 113.793 60.0775 114.16 59.7669 114.529Z" fill="#060505"/>
<path id="Vector_15" d="M110.262 56.8818C110.994 57.0973 111.423 57.6049 111.72 58.2494C112.085 59.0426 112.298 59.8606 112.151 60.7416C112.142 60.7977 112.128 60.8534 112.111 60.9076C112.042 61.1293 111.839 61.27 111.669 61.2116C111.47 61.1438 111.432 60.9744 111.442 60.7982C111.471 60.2541 111.494 59.7122 111.304 59.1873C111.246 59.0265 111.195 58.8631 111.137 58.7024C110.896 58.0365 110.532 57.5452 109.716 57.6094C109.481 57.6278 109.339 57.4203 109.408 57.2066C109.485 56.9643 109.582 56.7238 109.705 56.5011C110.306 55.4068 111.241 54.6808 112.345 54.1446C112.583 54.0288 112.829 53.9707 113.091 54.0204C113.243 54.0494 113.344 54.1435 113.359 54.3069C113.37 54.4301 113.323 54.542 113.219 54.5983C113.096 54.6646 112.953 54.6924 112.824 54.7494C111.785 55.2091 110.892 55.8458 110.262 56.8818Z" fill="#060505"/>
<path id="Vector_16" d="M77.8095 41.0075C79.2734 41.0538 80.4817 41.6452 81.5479 42.5698C81.6315 42.6423 81.6954 42.7428 81.7522 42.8398C81.8576 43.0199 81.8088 43.2734 81.6513 43.3761C81.484 43.4852 81.3144 43.4499 81.1802 43.325C80.8441 43.0124 80.4801 42.7401 80.0887 42.5011C78.9225 41.7889 77.6842 41.6488 76.3836 42.0398C75.8865 42.1894 75.4267 42.4142 75.0739 42.8144C74.9991 42.8992 74.9268 42.9914 74.8358 43.0553C74.7441 43.1196 74.6377 43.1502 74.519 43.0767C74.3811 42.9912 74.3267 42.8742 74.3323 42.7214C74.3379 42.57 74.4219 42.4535 74.514 42.3431C74.7928 42.009 75.1357 41.7557 75.5206 41.5583C76.1234 41.2493 77.1579 41.0051 77.8095 41.0075Z" fill="#060404"/>
<path id="Vector_17" d="M50.5189 117.244C50.1411 117.241 49.7617 117.254 49.3862 117.223C49.2742 117.213 49.2572 117.073 49.3773 116.989C49.5457 117.115 49.7405 117.054 49.9253 117.066C50.137 117.079 50.3638 117.043 50.5189 117.244Z" fill="#813F3F"/>
<path id="Vector_18" d="M65.9021 99.2506C65.9076 99.1649 65.9092 99.0788 65.9195 98.9938C65.9457 98.7779 65.8957 98.5993 65.6954 98.4814C65.6219 98.4381 65.5578 98.379 65.4875 98.3298C63.8837 97.2093 63.3312 95.6015 63.3183 93.7247C63.3133 93.0022 63.4595 92.3039 63.5708 91.6009C63.6327 91.2096 63.8015 90.8346 64.0519 90.5114C64.2362 90.2736 64.2784 90.0331 64.2348 89.7164C64.0293 88.2251 64.7003 87.1183 65.8625 86.2635C66.4501 85.8313 67.1238 85.9069 67.7611 86.0754C69.4044 86.5098 70.6928 88.1852 70.7354 89.8733C70.739 90.0158 70.7299 90.1608 70.7532 90.3002C70.7831 90.4803 70.8962 90.6116 71.0719 90.6698C71.2542 90.7302 71.4141 90.6631 71.5331 90.5277C71.8157 90.2062 72.078 89.8666 72.3672 89.5516C72.6386 89.2561 72.9504 89.0037 73.3018 88.8041C73.9612 88.4295 74.614 88.4419 75.2434 88.862C76.0698 89.4134 76.5517 90.1976 76.7561 91.1635C76.8903 91.798 76.8414 92.4127 76.583 93.0079C76.4278 93.3655 76.1942 93.6404 75.7885 93.7206C75.5896 93.76 75.4025 93.8274 75.2445 93.9586C75.0342 94.1331 75.0124 94.4608 75.2219 94.6369C75.4179 94.8015 75.6426 94.9314 75.8512 95.0814C76.8479 95.7983 77.2567 96.7711 77.1225 97.986C77.0637 98.519 76.8502 98.9807 76.4845 99.3607C75.7747 100.098 74.9158 100.479 73.8727 100.424C73.275 100.393 72.8379 100.14 72.5549 99.616C72.4464 99.415 72.3489 99.2068 72.2242 99.0162C72.1267 98.8673 71.9698 98.783 71.7846 98.8017C71.5661 98.8239 71.4057 98.9462 71.3457 99.1563C71.2913 99.347 71.278 99.5491 71.2366 99.744C71.0683 100.537 70.6235 101.079 69.8258 101.309C68.9179 101.57 68.0191 101.58 67.1429 101.198C66.2988 100.831 65.832 100.208 65.9021 99.2506Z" fill="#D42488"/>
<path id="Vector_19" d="M60.0763 114.682C60.0801 114.423 60.0521 114.158 60.2256 113.933C60.2309 114.194 60.3332 114.474 60.0763 114.682Z" fill="#060505"/>
<path id="Vector_20" d="M109.723 65.0428C109.534 65.039 109.421 64.963 109.35 64.7685C109.11 64.1153 108.752 63.5358 108.208 63.0839C107.062 62.1311 105.526 61.9949 104.112 62.7555C102.686 63.522 101.843 64.7467 101.516 66.3064C101.227 67.6808 101.441 68.9782 102.327 70.12C102.412 70.2293 102.457 70.3688 102.521 70.4944C102.644 70.5633 102.781 70.6155 102.888 70.7037C104.06 71.6666 105.933 71.6354 107.223 70.7724C108.315 70.0427 109.021 69.042 109.401 67.7947C109.613 67.0979 109.626 66.3875 109.557 65.6732C109.534 65.4329 109.543 65.2204 109.723 65.0428ZM106.537 69.5273C106.374 69.689 106.169 69.7623 105.944 69.7894C105.553 69.886 105.162 69.9031 104.77 69.7978C103.939 69.5594 103.501 68.9838 103.357 68.1545C103.142 67.8145 103.188 67.4321 103.221 67.0691C103.321 65.9614 103.713 64.9624 104.424 64.0978C104.46 64.0543 104.502 64.0103 104.551 63.985C104.592 63.9635 104.666 63.9462 104.692 63.9677C104.725 63.996 104.753 64.0785 104.735 64.1123C104.669 64.238 104.588 64.3567 104.504 64.4718C103.823 65.4059 103.518 66.4565 103.528 67.6055C103.539 67.6612 103.554 67.7163 103.56 67.7725C103.66 68.6655 104.11 69.2984 104.949 69.6418C105.218 69.637 105.487 69.6323 105.756 69.6275H105.756C105.943 69.44 106.212 69.4436 106.435 69.3414C106.471 69.3251 106.55 69.3569 106.579 69.3916C106.596 69.4127 106.569 69.4961 106.537 69.5273Z" fill="#D42488"/>
</g>
<g id="Group_5">
<path id="Vector_21" d="M219.383 157.449C218.04 157.531 216.696 157.609 215.353 157.698C214.382 157.762 213.412 157.842 212.441 157.911C210.441 158.051 208.442 158.19 206.442 158.324C206.249 158.337 206.043 158.394 205.865 158.239C206.117 156.053 206.445 153.873 206.599 151.673C206.663 150.76 206.773 149.849 206.869 148.939C206.897 148.671 206.83 148.459 206.686 148.219C206.273 147.534 205.708 147.033 205.03 146.635C204.135 146.11 203.176 145.739 202.184 145.458C198.529 144.421 194.811 144.145 191.044 144.619C189.994 144.751 188.96 144.985 187.983 145.421C187.509 145.633 187.064 145.884 186.695 146.256C186.286 146.668 186.096 147.154 186.186 147.737C186.239 148.077 186.302 148.415 186.338 148.756C186.575 151.007 186.72 153.264 186.749 155.528C186.757 156.157 186.808 156.786 186.838 157.415C186.851 157.672 186.87 157.93 186.87 158.187C186.87 158.266 186.822 158.354 186.722 158.37C186.525 158.402 186.327 158.441 186.129 158.455C185.101 158.527 184.072 158.595 183.043 158.66C180.9 158.797 178.756 158.924 176.613 159.067C173.642 159.266 170.672 159.483 167.701 159.68C164.672 159.881 161.643 160.065 158.614 160.262C157.414 160.341 156.215 160.441 155.015 160.52C153.644 160.611 152.271 160.689 150.9 160.773C150.669 160.787 150.462 160.793 150.277 160.589C149.35 159.563 148.156 158.96 146.885 158.481C146.711 158.416 146.495 158.412 146.384 158.225C146.404 158.06 146.529 157.975 146.627 157.875C147.268 157.221 147.912 156.568 148.556 155.916C154.83 149.552 161.104 143.189 167.377 136.825C167.578 136.621 167.79 136.425 167.966 136.201C168.318 135.755 168.28 135.157 167.9 134.8C167.51 134.433 166.954 134.433 166.498 134.812C166.345 134.94 166.21 135.09 166.069 135.232C165.063 136.251 164.057 137.271 163.052 138.291C156.859 144.573 150.663 150.853 144.481 157.146C144.104 157.53 143.771 157.702 143.213 157.585C142.29 157.391 141.344 157.317 140.397 157.298C138.793 157.265 137.193 157.275 135.593 157.453C133.251 157.714 130.964 158.196 128.756 159.026C127.357 159.552 126.027 160.209 124.844 161.135C124.092 161.724 123.432 162.4 123.028 163.278C122.896 163.564 122.716 163.633 122.432 163.646C121.46 163.691 120.488 163.759 119.516 163.815C117.144 163.953 114.771 164.088 112.398 164.226C112.055 164.246 111.713 164.279 111.37 164.304C111.246 164.313 111.147 164.265 111.094 164.149C111.035 164.019 110.983 163.886 110.931 163.753C109.805 160.884 107.733 159.004 104.871 157.942C103.243 157.338 101.542 157.099 99.8277 156.99C94.5555 156.655 89.2966 156.794 84.0566 157.517C81.3915 157.884 78.7226 158.229 76.0366 158.417C74.6344 158.515 73.2325 158.519 71.8296 158.44C71.0864 158.398 70.3433 158.345 69.5995 158.329C67.3947 158.28 65.1895 158.246 62.9845 158.209C62.5837 158.203 62.1815 158.195 61.7819 158.219C58.7814 158.402 55.7794 158.571 52.8037 159.03C50.9838 159.31 49.217 159.764 47.6023 160.684C47.3125 160.849 47.0156 160.882 46.6991 160.896C42.8938 161.061 39.0889 161.231 35.2838 161.398C31.4215 161.568 27.5591 161.737 23.6967 161.907C19.72 162.081 15.7433 162.26 11.7663 162.431C8.47601 162.572 5.18515 162.702 1.89484 162.844C1.23751 162.872 0.581374 162.93 -0.0753174 162.974C-0.0753174 163.261 -0.0753174 163.547 -0.0753174 163.834C0.540494 163.67 1.17355 163.709 1.8 163.681C3.83128 163.591 5.86334 163.518 7.89462 163.427C11.0702 163.286 14.2452 163.133 17.4207 162.993C19.3948 162.905 21.3696 162.836 23.3439 162.751C26.9774 162.594 30.6106 162.432 34.2439 162.271C35.9319 162.197 37.6197 162.12 39.3078 162.045C41.4247 161.951 43.5417 161.856 45.659 161.767C45.8165 161.761 45.9939 161.7 46.0577 161.765C46.2041 161.941 46.1227 162.009 46.0773 162.072C45.0741 163.47 44.2307 164.966 43.4167 166.477C42.8193 167.586 42.3481 168.756 41.9522 169.952C41.7185 170.658 41.5033 171.373 41.4948 172.127C41.4927 172.321 41.4346 172.473 41.2448 172.525C40.5216 172.72 40.2073 173.289 39.9638 173.918C39.7559 174.454 39.6217 175.011 39.6112 175.59C39.5694 177.88 39.5119 180.173 39.8342 182.45C39.9624 183.356 40.1231 184.259 40.3221 185.152C40.6357 186.559 41.3685 187.681 42.6843 188.359C43.3479 188.7 44.0384 188.971 44.7772 189.104C46.7811 189.464 48.8067 189.647 50.8352 189.761C53.5233 189.912 56.214 189.933 58.9082 189.854C61.5152 189.778 64.1131 189.602 66.7099 189.386C69.2206 189.177 71.7308 188.963 74.2405 188.744C75.695 188.616 77.1483 188.476 78.602 188.339C80.084 188.199 81.5632 188.017 83.0481 187.923C85.7341 187.754 88.4146 187.552 91.0912 187.251C93.6522 186.964 96.1981 186.577 98.7536 186.258C100.514 186.038 102.278 185.842 104.043 185.658C105.296 185.528 106.554 185.447 107.807 185.319C108.717 185.227 109.627 185.115 110.531 184.973C111.564 184.811 112.308 184.218 112.784 183.297C113.061 182.762 113.268 182.198 113.359 181.597C113.525 180.493 113.641 179.383 113.708 178.268C113.782 177.039 113.87 175.811 113.961 174.583C114.021 173.754 114.095 172.925 114.049 172.095C113.993 171.076 113.429 170.395 112.444 170.151C112.232 170.098 112.185 169.98 112.155 169.796C111.917 168.329 111.849 166.835 111.473 165.389C111.428 165.214 111.539 165.124 111.703 165.106C111.873 165.086 112.045 165.075 112.217 165.065C113.56 164.991 114.905 164.924 116.248 164.843C117.591 164.762 118.934 164.664 120.277 164.581C120.988 164.537 121.7 164.511 122.402 164.478C122.42 164.564 122.438 164.596 122.43 164.619C122.345 164.858 122.26 165.097 122.167 165.333C120.893 168.559 120.678 171.842 121.717 175.167C123.005 179.291 125.668 182.271 129.463 184.261C129.972 184.528 130.338 184.759 130.154 185.398C130.123 185.503 130.151 185.626 130.158 185.74C130.218 186.681 130.691 187.283 131.606 187.53C131.963 187.627 132.335 187.688 132.704 187.716C136.106 187.982 139.514 187.962 142.922 187.904C143.122 187.9 143.325 187.895 143.521 187.86C144.186 187.741 144.528 187.406 144.644 186.737C144.748 186.143 144.8 185.548 144.654 184.946C144.563 184.57 144.583 184.555 144.957 184.369C146.089 183.806 147.162 183.148 148.132 182.337C151.8 179.27 153.83 175.391 153.926 170.562C153.929 170.43 153.874 170.281 154.034 170.122C154.281 170.249 154.43 170.494 154.61 170.696C157.16 173.565 159.705 176.437 162.252 179.308C166.319 183.892 170.385 188.478 174.46 193.056C174.742 193.373 174.889 193.683 174.867 194.125C174.783 195.812 174.74 197.502 174.677 199.19C174.664 199.542 174.627 199.578 174.27 199.59C173.097 199.628 171.923 199.664 170.749 199.693C165.967 199.809 161.186 199.922 156.404 200.036C151.594 200.151 146.784 200.267 141.974 200.382C137.192 200.496 132.41 200.61 127.629 200.725C122.847 200.839 118.066 200.953 113.284 201.068C108.474 201.183 103.664 201.298 98.8535 201.413C94.0719 201.528 89.2903 201.642 84.5087 201.756C79.6985 201.871 74.8883 201.986 70.0781 202.102C65.2966 202.216 60.5149 202.33 55.7334 202.445C50.9518 202.559 46.1702 202.673 41.3887 202.788C36.6071 202.902 31.8255 203.019 27.0439 203.13C22.9208 203.226 18.7974 203.314 14.6742 203.407C14.2161 203.417 13.7584 203.442 13.3003 203.453C13.0499 203.46 12.9647 203.393 12.9511 203.19C12.9434 203.076 12.949 202.962 12.9501 202.847C12.9719 200.756 13.0116 198.666 13.0039 196.575C13.0018 196.018 13.1823 195.606 13.5353 195.192C18.7507 189.063 23.9538 182.924 29.1595 176.788C32.1977 173.206 35.2358 169.624 38.2726 166.041C38.4384 165.846 38.6085 165.65 38.7432 165.433C38.8371 165.282 38.8205 165.102 38.6858 164.959C38.5582 164.823 38.2859 164.808 38.1386 164.953C37.9555 165.134 37.7926 165.335 37.626 165.531C32.6604 171.384 27.6953 177.236 22.7304 183.089C19.3402 187.085 15.9519 191.084 12.5575 195.076C12.2891 195.392 12.0608 195.692 12.1864 196.145C12.2304 196.304 12.1885 196.487 12.1865 196.659C12.1615 198.807 12.1365 200.955 12.1119 203.103C12.1099 203.274 12.1036 203.447 12.1119 203.618C12.1333 204.064 12.2865 204.228 12.7364 204.268C12.9352 204.285 13.1369 204.273 13.3371 204.269C15.599 204.216 17.8609 204.161 20.1229 204.107C24.933 203.992 29.7432 203.877 34.5533 203.762C39.3062 203.648 44.0591 203.534 48.8119 203.421C53.6221 203.306 58.4322 203.191 63.2424 203.076C68.0525 202.961 72.8627 202.846 77.6728 202.731C82.4543 202.616 87.2359 202.502 92.0173 202.388C96.7989 202.273 101.58 202.159 106.362 202.044C111.143 201.93 115.925 201.816 120.706 201.701C125.517 201.586 130.327 201.471 135.137 201.356C139.918 201.242 144.7 201.127 149.482 201.013C154.263 200.898 159.044 200.782 163.826 200.67C167.491 200.585 171.156 200.508 174.821 200.426C175.385 200.413 175.388 200.409 175.459 199.873C175.485 199.675 175.497 199.474 175.505 199.275C175.568 197.557 175.606 195.839 175.7 194.124C175.734 193.505 175.563 193.043 175.149 192.58C171.883 188.93 168.639 185.26 165.389 181.597C161.683 177.419 157.98 173.239 154.266 169.068C153.95 168.713 153.72 168.358 153.686 167.867C153.662 167.529 153.544 167.197 153.459 166.864C153.023 165.159 152.27 163.591 151.38 162.082C151.3 161.947 151.137 161.824 151.259 161.591C163.065 160.808 174.893 160.023 186.72 159.239C186.747 159.237 186.779 159.24 186.801 159.253C186.824 159.267 186.838 159.296 186.895 159.365C186.903 159.454 186.921 159.593 186.926 159.732C186.974 161.049 187.028 162.365 187.063 163.682C187.105 165.229 187.237 166.769 187.383 168.308C187.518 169.733 187.633 171.16 187.764 172.586C187.835 173.356 187.978 174.116 188.158 174.868C188.239 175.205 188.392 175.466 188.712 175.686C189.366 176.137 190.07 176.402 190.841 176.541C192.11 176.77 193.39 176.918 194.675 177.01C196.278 177.123 197.877 177.115 199.457 176.731C200.926 176.374 202.26 175.759 203.44 174.807C203.817 174.503 204.055 174.146 204.101 173.655C204.131 173.342 204.209 173.035 204.255 172.723C204.72 169.579 204.979 166.411 205.311 163.251C205.436 162.055 205.549 160.858 205.675 159.662C205.719 159.24 205.752 159.21 206.127 159.184C208.498 159.015 210.868 158.847 213.239 158.685C215.239 158.547 217.239 158.419 219.239 158.28C219.464 158.264 219.687 158.204 219.911 158.164C220.032 157.707 220.126 157.268 219.383 157.449ZM110.655 165.548C110.761 166.049 110.895 166.542 110.966 167.052C111.084 167.897 111.223 168.741 111.371 169.582C111.414 169.825 111.326 169.968 111.127 170.061C110.897 170.17 110.663 170.276 110.423 170.358C110.221 170.427 110.099 170.327 110.097 170.114C110.092 169.772 110.095 169.43 110.095 168.942C110.086 167.827 109.872 166.594 109.587 165.371C109.551 165.217 109.427 165.019 109.576 164.892C109.753 164.741 109.939 164.897 110.121 164.962C110.411 165.065 110.587 165.225 110.655 165.548ZM108.264 161.126C109.092 161.839 109.884 163.118 110.057 164.022C109.957 164.125 109.844 164.05 109.737 164.043C109.356 164.02 109.132 163.855 109.015 163.454C108.825 162.799 108.557 162.167 108.32 161.526C108.272 161.396 108.178 161.274 108.264 161.126ZM109.262 169.966C109.258 170.051 109.258 170.138 109.244 170.222C109.218 170.382 109.12 170.471 108.956 170.477C108.443 170.497 107.929 170.511 107.415 170.534C106.217 170.589 105.02 170.649 103.822 170.702C103.567 170.714 103.311 170.704 103.032 170.704C102.843 169.885 102.681 169.075 102.468 168.28C102.232 167.399 101.948 166.531 101.688 165.656C101.623 165.438 101.678 165.316 101.884 165.264C102.381 165.137 102.877 164.963 103.383 164.918C104.973 164.778 106.561 164.534 108.167 164.701C108.504 164.736 108.588 164.774 108.66 165.054C109.074 166.665 109.335 168.295 109.262 169.966ZM98.9046 157.832C99.2713 157.832 99.6415 157.804 100.006 157.836C101.519 157.971 103.022 158.163 104.464 158.673C104.706 158.759 104.949 158.847 105.184 158.949C106.757 159.626 106.807 159.68 107.398 161.312C107.642 161.984 107.88 162.658 108.117 163.332C108.163 163.464 108.189 163.602 108.228 163.751C107.998 163.917 107.767 163.845 107.555 163.834C106.003 163.759 104.47 163.966 102.938 164.167C102.516 164.222 102.106 164.367 101.69 164.468C101.374 164.545 101.3 164.51 101.183 164.185C100.835 163.216 100.486 162.248 100.155 161.273C99.8139 160.271 99.4383 159.282 99.0065 158.315C98.9383 158.163 98.8321 158.019 98.9046 157.832ZM91.3563 157.69C91.4412 157.679 91.5272 157.672 91.6125 157.672C93.5284 157.678 95.4443 157.693 97.36 157.684C97.7618 157.683 97.9627 157.824 98.1204 158.201C98.8031 159.836 99.3597 161.517 99.9521 163.184C100.122 163.662 100.284 164.142 100.461 164.653C100.131 164.717 99.854 164.795 99.5727 164.82C98.6054 164.907 97.6363 164.973 96.6681 165.051C96.2125 165.088 95.7573 165.13 95.3029 165.179C95.1929 165.191 95.072 165.219 94.9835 165.28C94.895 165.34 94.8046 165.449 94.8451 165.57C94.8788 165.671 94.943 165.807 95.0259 165.836C95.1807 165.891 95.3596 165.899 95.5273 165.893C97.041 165.838 98.5541 165.788 100.059 165.584C100.837 165.478 100.73 165.428 100.996 166.204C101.479 167.612 101.81 169.059 102.139 170.507C102.15 170.557 102.126 170.614 102.117 170.682C102.042 170.704 101.962 170.744 101.881 170.748C99.8252 170.851 97.769 170.951 95.7128 171.05C95.5986 171.056 95.4841 171.062 95.3699 171.061C95.0799 171.056 95.0325 171.023 94.9685 170.738C94.7433 169.735 94.5338 168.728 94.2996 167.727C93.5441 164.498 92.6351 161.317 91.3503 158.252C91.3063 158.147 91.2507 158.046 91.2207 157.937C91.1891 157.822 91.2005 157.709 91.3563 157.69ZM85.0855 158.236C86.5923 158.083 88.0996 157.934 89.6082 157.799C90.3708 157.731 90.294 157.717 90.5882 158.444C91.1662 159.874 91.6425 161.34 92.1081 162.811C92.9107 165.347 93.5315 167.927 94.0777 170.527C94.0953 170.611 94.1075 170.696 94.1198 170.781C94.1596 171.052 94.1031 171.121 93.8063 171.156C93.7212 171.166 93.6352 171.169 93.5497 171.174C91.6383 171.3 89.727 171.425 87.8156 171.55C87.6444 171.561 87.4727 171.564 87.3013 171.573C86.7058 171.603 86.7381 171.544 86.7052 171.026C86.5997 169.367 86.2591 167.744 85.933 166.119C85.8891 165.9 85.7986 165.683 85.904 165.42C87.3511 165.406 88.8012 165.458 90.2301 165.792C90.508 165.857 90.7882 165.919 91.0709 165.953C91.2059 165.97 91.3524 165.933 91.4879 165.897C91.6042 165.867 91.6785 165.771 91.6976 165.652C91.7218 165.501 91.6771 165.358 91.5486 165.277C91.4559 165.218 91.3365 165.197 91.2263 165.171C90.0024 164.874 88.7714 164.632 87.5033 164.629C86.9604 164.628 86.4174 164.59 85.8748 164.564C85.7262 164.557 85.5883 164.506 85.5547 164.339C85.1559 162.352 84.6184 160.399 84.1259 158.398C84.472 158.339 84.7767 158.267 85.0855 158.236ZM77.2083 169.378C77.2256 169.377 77.2428 169.377 77.26 169.377C77.2152 168.576 77.1665 167.776 77.1274 166.975C77.1103 166.625 77.1292 166.601 77.4952 166.544C78.1457 166.444 78.796 166.334 79.4505 166.269C80.8198 166.135 82.1655 165.854 83.5237 165.652C83.6084 165.64 83.6907 165.606 83.7756 165.599C85.1845 165.477 84.8971 165.245 85.1731 166.592C85.3969 167.684 85.5742 168.787 85.7546 169.887C85.8193 170.282 85.8445 170.684 85.8674 171.084C85.9006 171.663 85.8882 171.673 85.3418 171.712C84.5135 171.771 83.6842 171.817 82.8563 171.881C81.4006 171.995 79.9467 172.133 78.4899 172.23C78.0755 172.257 77.6464 172.407 77.2337 172.198C77.14 171.804 77.2165 171.406 77.2104 171.01C77.202 170.466 77.2083 169.922 77.2083 169.378ZM78.4068 159.035C79.7107 158.88 81.0147 158.726 82.3188 158.573C82.5457 158.546 82.7726 158.516 83.0004 158.503C83.3216 158.485 83.3684 158.526 83.449 158.872C83.8377 160.539 84.225 162.206 84.6105 163.874C84.6491 164.041 84.6747 164.21 84.7013 164.38C84.7273 164.544 84.6638 164.651 84.4905 164.677C82.5149 164.971 80.5407 165.275 78.5626 165.551C78.0899 165.617 77.6183 165.764 77.0784 165.69C76.8833 164.615 76.9338 163.532 76.8683 162.458C76.8042 161.406 76.7195 160.356 76.6397 159.247C77.2292 159.176 77.8179 159.105 78.4068 159.035ZM71.471 165.764C71.2845 165.696 71.085 165.654 70.8876 165.628C69.7817 165.484 68.688 165.248 67.5698 165.196C67.1661 165.177 67.1506 165.145 67.2121 164.723C67.4642 162.996 67.729 161.271 67.8127 159.524C67.8287 159.19 67.8844 159.132 68.2355 159.14C69.4375 159.169 70.6405 159.189 71.8404 159.26C72.957 159.325 74.0714 159.342 75.1877 159.29C75.2735 159.286 75.3589 159.274 75.4447 159.272C75.7927 159.262 75.8563 159.309 75.8812 159.637C75.9309 160.294 75.9824 160.95 76.0115 161.608C76.0508 162.495 76.0624 163.382 76.1006 164.269C76.119 164.698 76.1729 165.125 76.2071 165.552C76.2236 165.76 76.122 165.871 75.915 165.887C75.4012 165.925 74.8873 165.962 74.3738 166.002C74.2321 166.013 74.0872 166.019 73.9507 166.054C73.8018 166.092 73.7072 166.207 73.7052 166.363C73.7031 166.521 73.8096 166.643 73.944 166.686C74.1034 166.736 74.2811 166.75 74.4499 166.746C74.9648 166.732 75.4794 166.705 75.9936 166.674C76.1721 166.664 76.2618 166.752 76.2853 166.91C76.3148 167.107 76.3306 167.308 76.3436 167.508C76.4404 168.995 76.3866 170.484 76.36 171.973C76.3535 172.34 76.3044 172.392 75.9806 172.411C72.8372 172.595 69.6937 172.777 66.5501 172.955C66.3555 172.967 66.1482 173.019 65.9441 172.851C66.1227 171.742 66.3049 170.613 66.4857 169.485C66.6442 168.497 66.8033 167.508 66.9574 166.519C67.0318 166.042 67.0566 166.019 67.5619 166.033C68.3657 166.056 69.1528 166.215 69.9463 166.323C70.3148 166.373 70.6817 166.435 71.0505 166.482C71.1613 166.496 71.2777 166.49 71.3886 166.473C71.5416 166.45 71.7002 166.254 71.6905 166.104C71.6804 165.953 71.61 165.814 71.471 165.764ZM55.4748 172.961C55.7432 171.348 56.1772 169.781 56.7345 168.245C56.8457 167.939 57.027 167.803 57.3296 167.72C58.8719 167.296 60.4037 166.834 61.9488 166.42C63.2282 166.078 64.5404 165.979 65.8629 166.025C65.9428 166.027 66.0214 166.066 66.1192 166.094C66.1597 166.822 65.9658 167.514 65.8662 168.213C65.6644 169.628 65.4131 171.036 65.1811 172.447C65.1625 172.559 65.1339 172.671 65.1123 172.783C65.0822 172.939 64.9971 173.04 64.8343 173.06C64.7492 173.071 64.6634 173.078 64.5777 173.083C62.2921 173.213 60.0064 173.343 57.7207 173.473C57.0351 173.512 56.3496 173.553 55.6638 173.59C55.528 173.597 55.4484 173.516 55.445 173.387C55.4413 173.245 55.4515 173.101 55.4748 172.961ZM55.0705 170.86C54.8232 171.74 54.6934 172.643 54.5432 173.612C53.8007 173.663 53.1199 173.721 52.438 173.755C50.9549 173.83 49.4713 173.895 47.9877 173.96C47.7465 173.97 47.6725 173.897 47.6789 173.675C47.6897 173.304 47.7383 172.939 47.8168 172.573C48.1119 171.198 48.6284 169.902 49.1911 168.621C49.2865 168.403 49.3966 168.353 49.6469 168.392C50.8117 168.575 51.9825 168.495 53.1494 168.393C53.8033 168.336 54.4532 168.235 55.1064 168.169C55.3283 168.147 55.555 168.077 55.8309 168.178C55.5769 169.073 55.3216 169.966 55.0705 170.86ZM62.2261 159.044C63.6578 159.036 65.0897 159.068 66.5215 159.084C66.6074 159.085 66.6936 159.084 66.7789 159.091C66.9917 159.11 67.0735 159.207 67.0542 159.435C67.0203 159.834 66.989 160.234 66.9367 160.631C66.7573 161.993 66.5693 163.354 66.3839 164.715C66.3762 164.771 66.3617 164.827 66.3482 164.883C66.3043 165.064 66.2172 165.191 66.0031 165.186C65.7455 165.181 65.4876 165.191 65.2299 165.188C63.8746 165.174 62.5499 165.382 61.2482 165.746C60.0922 166.069 58.9398 166.405 57.7846 166.731C57.6794 166.761 57.5656 166.76 57.304 166.792C58.3647 164.383 59.2599 162.026 60.6544 159.911C61.3194 158.902 61.1639 159.049 62.2261 159.044ZM55.1945 159.801C55.3536 159.626 55.5388 159.521 55.7851 159.497C57.1793 159.359 58.5717 159.201 59.9755 159.201C59.9951 159.201 60.0145 159.229 60.0356 159.246C60.1089 159.41 59.9815 159.511 59.9049 159.621C59.1336 160.729 58.5296 161.927 57.9912 163.16C57.4884 164.312 56.9707 165.458 56.4921 166.62C56.3338 167.005 56.1321 167.221 55.7003 167.273C54.138 167.462 52.5743 167.63 51.0038 167.731C50.5795 167.758 50.1583 167.733 49.7591 167.593C49.7495 167.313 49.9064 167.129 50.0102 166.932C50.5171 165.97 51.0786 165.04 51.7173 164.159C52.6578 162.861 53.6336 161.591 54.6744 160.372C54.8415 160.176 55.0216 159.992 55.1945 159.801ZM43.9995 167.143C44.8042 165.63 45.653 164.143 46.6233 162.728C47.1365 161.98 47.8327 161.453 48.6491 161.068C49.9253 160.466 51.2735 160.109 52.6605 159.9C53.1084 159.832 53.5492 159.669 54.1509 159.752C51.9132 162.366 49.889 164.976 48.5574 168.021C48.3176 168.094 48.2625 167.847 48.1084 167.831C47.9394 167.813 47.7667 167.813 47.5968 167.824C46.4472 167.9 45.3166 167.732 44.186 167.565C43.9098 167.525 43.8562 167.413 43.9995 167.143ZM42.4412 171.254C42.664 170.338 42.9748 169.451 43.3588 168.591C43.4996 168.275 43.5316 168.248 43.871 168.292C44.2948 168.347 44.7179 168.413 45.1369 168.496C46.15 168.697 47.1681 168.716 48.1921 168.599C48.2667 168.891 48.073 169.1 47.9846 169.329C47.5632 170.42 47.1537 171.513 46.9597 172.673C46.9034 173.009 46.8659 173.35 46.8382 173.69C46.8223 173.886 46.76 174.007 46.549 174.034C45.697 174.142 44.8408 174.167 43.9864 174.109C43.5854 174.081 43.2202 173.905 42.9089 173.632C42.5476 173.314 42.3325 172.932 42.3245 172.443C42.318 172.042 42.3463 171.644 42.4412 171.254ZM111.526 170.788C111.687 170.691 111.81 170.638 111.977 170.79C112.075 170.879 112.229 170.912 112.362 170.954C112.893 171.12 113.149 171.509 113.201 172.032C113.235 172.372 113.234 172.719 113.214 173.061C113.124 174.519 113.028 175.976 112.922 177.432C112.844 178.517 112.751 179.601 112.656 180.685C112.594 181.402 112.438 182.098 112.131 182.754C111.783 183.498 111.243 183.987 110.409 184.16C109.9 184.266 109.386 184.271 108.877 184.345C107.856 184.495 106.831 184.586 105.802 184.655C104.46 184.745 103.12 184.884 101.784 185.039C100.22 185.22 98.6612 185.441 97.1006 185.646C95.5685 185.848 94.0388 186.069 92.5048 186.254C89.5485 186.609 86.5879 186.913 83.6113 187.061C82.0683 187.137 80.5302 187.317 78.9908 187.459C77.4799 187.598 75.9707 187.756 74.4594 187.89C71.9783 188.109 69.4972 188.331 67.0139 188.523C64.9874 188.679 62.9661 188.908 60.931 188.951C59.3849 188.984 57.8396 189.049 56.294 189.1C53.6274 189.106 50.967 188.986 48.3146 188.728C47.1194 188.611 45.9196 188.511 44.7422 188.249C44.151 188.117 43.5991 187.891 43.0617 187.618C42.0472 187.102 41.4552 186.252 41.1864 185.179C40.992 184.403 40.8391 183.614 40.7239 182.822C40.3636 180.348 40.3485 177.859 40.4666 175.366C40.4899 174.875 40.614 174.407 40.8047 173.955C40.906 173.715 41.0333 173.494 41.2526 173.339C41.4002 173.235 41.5883 173.262 41.6976 173.413C41.7478 173.482 41.7862 173.56 41.8326 173.632C42.3878 174.495 43.2001 174.908 44.2044 174.962C44.5753 174.982 44.9493 174.97 45.3208 174.95C47.8084 174.819 50.2958 174.681 52.7834 174.548C54.0416 174.481 55.3005 174.427 56.5587 174.359C60.2473 174.16 63.9364 173.969 67.624 173.753C71.1973 173.544 74.7701 173.324 78.3409 173.079C80.8829 172.905 83.4205 172.667 85.9619 172.482C88.0751 172.328 90.1907 172.205 92.3059 172.08C94.9071 171.926 97.5089 171.781 100.111 171.638C100.654 171.608 101.198 171.595 101.742 171.588C102.917 171.574 104.089 171.528 105.262 171.454C106.776 171.359 108.294 171.303 109.811 171.257C110.428 171.238 111 171.105 111.526 170.788ZM123.814 163.56C124.104 162.988 124.517 162.519 124.989 162.096C125.677 161.481 126.454 161 127.272 160.58C128.808 159.791 130.438 159.267 132.112 158.872C135.204 158.143 138.339 157.978 141.499 158.188C141.784 158.207 142.071 158.242 142.35 158.302C142.583 158.353 142.932 158.211 143.022 158.489C143.091 158.7 142.785 158.846 142.631 159.004C141.409 160.252 140.173 161.488 138.959 162.744C138.679 163.033 138.383 163.145 137.984 163.16C136.088 163.235 134.229 163.536 132.434 164.174C131.866 164.376 131.324 164.631 130.813 164.951C130.495 165.15 130.207 165.385 129.987 165.692C129.543 166.314 129.604 166.944 130.161 167.463C130.504 167.782 130.924 167.964 131.357 168.119C132.174 168.41 133.028 168.519 133.884 168.575C136.248 168.729 138.57 168.461 140.843 167.793C141.586 167.575 142.306 167.297 142.97 166.896C143.363 166.658 143.735 166.389 143.993 165.995C144.399 165.376 144.339 164.808 143.801 164.296C143.352 163.869 142.782 163.675 142.203 163.504C141.94 163.426 141.674 163.356 141.377 163.274C141.459 163.158 141.498 163.082 141.556 163.024C142.78 161.778 144.014 160.541 145.227 159.283C145.483 159.017 145.729 158.95 146.065 159.066C146.932 159.366 147.78 159.705 148.553 160.209C149.036 160.524 149.479 160.881 149.834 161.341C150.539 162.255 150.609 163.219 150.054 164.227C149.761 164.76 149.357 165.204 148.9 165.601C148.293 166.13 147.622 166.565 146.912 166.943C145.259 167.824 143.496 168.395 141.68 168.817C138.699 169.508 135.676 169.691 132.633 169.481C130.744 169.351 128.887 169.009 127.11 168.319C126.468 168.069 125.85 167.772 125.278 167.388C124.8 167.068 124.364 166.698 124.025 166.227C123.416 165.38 123.34 164.495 123.814 163.56ZM143.407 165.213C143.434 165.269 143.429 165.322 143.391 165.371C143.355 165.438 143.313 165.5 143.264 165.557L143.26 165.563C143.212 165.608 143.157 165.621 143.096 165.608C143.093 165.65 143.091 165.692 143.088 165.734C143.05 165.736 143.012 165.738 142.974 165.741C142.976 165.799 142.958 165.852 142.914 165.897L142.91 165.901C142.83 165.998 142.644 165.942 142.61 166.106L142.597 166.113C142.497 166.101 142.458 166.179 142.408 166.24L142.387 166.25C142.305 166.357 142.206 166.428 142.063 166.417L142.047 166.422C141.947 166.511 141.792 166.481 141.698 166.584L141.667 166.617L141.627 166.596C141.519 166.603 141.444 166.674 141.362 166.733L141.292 166.777L141.209 166.774C141.099 166.851 140.949 166.821 140.845 166.913L140.776 166.952L140.697 166.946C140.587 167.021 140.441 166.993 140.333 167.074C140.102 167.133 139.893 167.282 139.639 167.248C139.529 167.266 139.42 167.284 139.311 167.301C139.209 167.354 139.091 167.351 138.986 167.395C138.383 167.519 137.786 167.7 137.105 167.611C137.235 167.331 137.424 167.193 137.667 167.093C137.878 167.006 137.831 166.672 138.085 166.61C138.086 166.604 138.085 166.6 138.086 166.594C138.184 166.561 138.258 166.504 138.28 166.396C138.29 166.392 138.299 166.389 138.309 166.385C138.57 165.93 139.027 165.647 139.33 165.229L140.141 164.486C140.392 164.053 140.739 163.945 141.187 164.176C141.187 164.176 141.187 164.176 141.187 164.177C141.974 164.239 142.729 164.382 143.305 164.991C143.286 165.09 143.362 165.145 143.407 165.213ZM136.723 164.993C136.712 165.037 136.685 165.055 136.645 165.05C136.488 165.221 136.331 165.391 136.173 165.562C136.167 165.564 136.161 165.564 136.155 165.565C136.102 165.714 135.992 165.806 135.851 165.866C135.835 165.933 135.806 165.986 135.735 165.996C135.735 165.996 135.735 165.997 135.734 165.997C135.584 166.16 135.403 166.305 135.29 166.49L132.657 167.556C132.51 167.639 132.372 167.622 132.262 167.488C132.253 167.484 132.245 167.482 132.236 167.478C132.134 167.456 132.031 167.433 131.929 167.411C131.929 167.411 131.929 167.41 131.929 167.41C131.929 167.41 131.929 167.41 131.929 167.411C131.77 167.455 131.651 167.382 131.542 167.279C131.542 167.279 131.543 167.278 131.543 167.276C131.2 167.221 130.92 167.049 130.682 166.803C130.528 166.642 130.502 166.437 130.634 166.26C130.753 166.103 130.885 165.948 131.039 165.828C131.505 165.463 132.012 165.171 132.601 165.048C132.601 165.047 132.601 165.045 132.602 165.044C133.005 164.756 133.493 164.693 133.95 164.568C134.933 164.298 135.942 164.153 136.953 164.039C137.135 164.019 137.33 163.953 137.564 164.11C137.361 164.354 137.199 164.602 136.903 164.726C136.938 164.898 136.876 164.916 136.723 164.993ZM143.949 185.888C143.922 187.137 143.742 187.09 142.712 187.135C140.542 187.229 138.37 187.215 136.2 187.11C134.945 187.05 133.684 187.091 132.438 186.892C132.185 186.852 131.934 186.798 131.687 186.732C131.185 186.597 130.93 186.248 130.884 185.743C130.863 185.518 130.835 185.288 130.95 184.981C131.773 185.225 132.548 185.507 133.353 185.693C136.611 186.448 139.813 186.264 142.971 185.186C143.923 184.861 143.97 184.892 143.949 185.888ZM151.518 164.022C152.188 165.296 152.703 166.622 152.882 168.063C152.935 168.488 153.042 168.908 153.081 169.334C153.341 172.124 152.767 174.751 151.424 177.194C149.428 180.824 146.403 183.257 142.481 184.516C137.636 186.069 132.971 185.577 128.629 182.884C125.298 180.818 123.122 177.845 122.208 174.008C121.589 171.407 121.768 168.837 122.635 166.312C122.683 166.172 122.739 166.047 122.893 165.949C123.559 167.345 124.751 168.16 126.096 168.79C127.373 169.388 128.724 169.771 130.11 169.996C134.882 170.772 139.58 170.429 144.193 168.98C145.532 168.56 146.817 168.002 148.018 167.265C148.63 166.889 149.205 166.466 149.723 165.967C150.393 165.322 150.911 164.577 151.175 163.681C151.417 163.701 151.447 163.887 151.518 164.022ZM187.445 146.691C187.879 146.352 188.373 146.133 188.89 145.957C190.063 145.559 191.279 145.379 192.507 145.296C193.163 145.251 193.823 145.288 194.481 145.288C197.1 145.237 199.673 145.562 202.184 146.32C203.061 146.585 203.913 146.917 204.698 147.397C205.09 147.637 205.466 147.901 205.734 148.285C206.058 148.749 206.023 149.098 205.621 149.51C205.378 149.759 205.078 149.927 204.768 150.076C204.066 150.412 203.32 150.617 202.56 150.75C200.521 151.108 198.469 151.185 196.403 151.015C194.572 150.864 192.768 150.591 191.004 150.079C190.207 149.847 189.43 149.561 188.69 149.181C188.204 148.931 187.749 148.631 187.367 148.239C186.876 147.733 186.863 147.147 187.445 146.691ZM205.159 157.076C205.004 158.44 204.835 159.802 204.691 161.167C204.478 163.187 204.281 165.208 204.08 167.229C203.886 169.193 203.657 171.152 203.36 173.104C203.228 173.973 203.207 173.963 202.501 174.479C201.612 175.13 200.627 175.572 199.566 175.846C198.679 176.076 197.777 176.217 196.855 176.226C195.335 176.243 193.825 176.152 192.323 175.919C191.786 175.836 191.248 175.762 190.71 175.694C190.336 175.646 189.982 175.538 189.653 175.361C189.263 175.152 188.996 174.867 188.896 174.394C188.699 173.468 188.574 172.534 188.483 171.596C188.085 167.465 187.82 163.327 187.749 159.177C187.74 158.605 187.681 158.034 187.654 157.463C187.642 157.208 187.652 156.952 187.652 156.654C187.984 156.599 188.208 156.761 188.446 156.839C190.497 157.51 192.607 157.852 194.753 158.004C196.211 158.108 197.668 158.121 199.127 158.01C201.16 157.854 203.156 157.541 205.026 156.67C205.048 156.66 205.082 156.677 205.112 156.682C205.238 156.799 205.174 156.943 205.159 157.076ZM205.577 153.819C205.546 154.161 205.461 154.501 205.462 154.841C205.465 155.376 205.197 155.672 204.74 155.887C204.091 156.194 203.424 156.444 202.729 156.616C200.491 157.17 198.214 157.343 195.917 157.246C193.711 157.154 191.529 156.88 189.401 156.266C188.908 156.124 188.431 155.927 187.94 155.775C187.678 155.694 187.587 155.54 187.577 155.274C187.544 154.302 187.489 153.331 187.45 152.359C187.419 151.558 187.404 150.757 187.273 149.964C187.246 149.797 187.25 149.624 187.241 149.469C187.34 149.407 187.413 149.39 187.494 149.442C188.958 150.388 190.595 150.891 192.274 151.26C194.489 151.747 196.737 151.972 199.005 151.925C200.551 151.893 202.089 151.762 203.593 151.365C204.34 151.167 205.051 150.886 205.872 150.422C205.765 151.658 205.675 152.739 205.577 153.819Z" fill="black"/>
<g id="Group_6">
<path id="Vector_22" d="M135.998 165.041C135.999 165.044 135.999 165.047 135.999 165.05C136.002 165.047 136.005 165.044 136.008 165.041C136.004 165.041 136.001 165.041 135.998 165.041Z" fill="black"/>
</g>
<path id="Vector_23" d="M219.912 158.164C219.908 158.052 219.897 157.941 219.902 157.829C219.914 157.571 219.776 157.488 219.541 157.496C219.489 157.497 219.436 157.465 219.383 157.449C219.583 157.255 219.852 157.389 220.075 157.303C220.075 157.59 220.075 157.876 220.075 158.163C220.021 158.163 219.966 158.163 219.912 158.164Z" fill="#727171"/>
<path id="Vector_24" d="M94.2671 195.273C89.6296 195.378 84.9923 195.488 80.3547 195.587C75.8316 195.683 71.3081 195.766 66.7849 195.859C61.3743 195.972 55.9638 196.089 50.5533 196.205C45.2859 196.318 40.0186 196.431 34.7512 196.544C30.0277 196.646 25.3042 196.747 20.5808 196.847C20.3521 196.852 20.1221 196.857 19.8944 196.839C19.7063 196.825 19.5868 196.7 19.5432 196.518C19.5 196.338 19.6437 196.115 19.8579 196.073C20.0798 196.031 20.3102 196.023 20.5372 196.018C25.1751 195.923 29.8129 195.835 34.4507 195.738C39.8041 195.627 45.1574 195.51 50.5107 195.396C55.8355 195.282 61.1601 195.168 66.4849 195.054C71.8668 194.939 77.2488 194.824 82.6307 194.709C87.9841 194.594 93.3374 194.48 98.6907 194.365C104.044 194.251 109.397 194.136 114.751 194.021C120.104 193.907 125.457 193.793 130.811 193.679C136.193 193.564 141.575 193.448 146.957 193.333C152.31 193.218 157.663 193.105 163.017 192.99C164.763 192.952 166.509 192.91 168.255 192.875C168.483 192.87 168.714 192.876 168.938 192.91C169.084 192.932 169.179 193.054 169.203 193.209C169.233 193.405 169.142 193.542 168.973 193.623C168.731 193.738 168.467 193.705 168.212 193.71C166.551 193.742 164.89 193.763 163.23 193.797C157.819 193.91 152.409 194.026 146.998 194.142C141.731 194.255 136.463 194.369 131.196 194.481C125.757 194.598 120.318 194.713 114.879 194.829C109.554 194.943 104.229 195.055 98.9047 195.173C97.3589 195.207 95.8134 195.256 94.2678 195.298C94.2676 195.29 94.2673 195.281 94.2671 195.273Z" fill="black"/>
</g>
</g>
</g>
</g>
<defs>
<clipPath id="clip0_4_875">
<rect width="220" height="220" fill="white"/>
</clipPath>
</defs>
</svg>
