<svg width="28" height="28" viewBox="0 0 28 28" fill="none" xmlns="http://www.w3.org/2000/svg">
<g id="logos:google-icon" clip-path="url(#clip0_4_930)">
<path id="Vector" d="M27.9867 14.2619C27.9867 13.1148 27.8914 12.2777 27.6852 11.4096H14.2789V16.5872H22.1481C21.9895 17.8739 21.1328 19.8117 19.2289 21.1138L19.2022 21.2872L23.441 24.4957L23.7347 24.5244C26.4318 22.0905 27.9867 18.5095 27.9867 14.2619Z" fill="#4285F4"/>
<path id="Vector_2" d="M14.2789 27.9038C18.1341 27.9038 21.3707 26.6636 23.7347 24.5244L19.2289 21.1138C18.0231 21.9354 16.4048 22.509 14.2789 22.509C10.5029 22.509 7.29815 20.0753 6.15573 16.7113L5.98828 16.7252L1.58068 20.0582L1.52304 20.2147C3.8711 24.7723 8.69421 27.9038 14.2789 27.9038Z" fill="#34A853"/>
<path id="Vector_3" d="M6.15573 16.7113C5.8543 15.8432 5.67984 14.913 5.67984 13.9519C5.67984 12.9907 5.8543 12.0606 6.13988 11.1925L6.13189 11.0076L1.66906 7.62112L1.52305 7.68899C0.555297 9.58027 0 11.7041 0 13.9519C0 16.1997 0.555297 18.3234 1.52305 20.2147L6.15573 16.7113Z" fill="#FBBC05"/>
<path id="Vector_4" d="M14.2789 5.3947C16.9601 5.3947 18.7687 6.52635 19.8 7.47205L23.8299 3.6275C21.3549 1.37969 18.1341 0 14.2789 0C8.69421 0 3.8711 3.1314 1.52304 7.68899L6.13987 11.1925C7.29815 7.82857 10.5029 5.3947 14.2789 5.3947Z" fill="#EB4335"/>
</g>
<defs>
<clipPath id="clip0_4_930">
<rect width="28" height="28" fill="white"/>
</clipPath>
</defs>
</svg>
